<svg xmlns="http://www.w3.org/2000/svg" xmlns:xlink="http://www.w3.org/1999/xlink" xmlns:lucid="lucid" width="1705" height="1840"><g transform="translate(-14.999999999999943 -80)" lucid:page-tab-id="CM4rELASFa0n"><path d="M248 100c17.67 0 32 17.9 32 40s-14.33 40-32 40h-96c-17.67 0-32-17.9-32-40s14.33-40 32-40z" stroke="#4881b3" stroke-width="3" fill="#f5fbff"/><use xlink:href="#a" transform="matrix(1,0,0,1,125,105) translate(54.05 38.4625)"/><path d="M908 1820c17.67 0 32 17.9 32 40s-14.33 40-32 40h-96c-17.67 0-32-17.9-32-40s14.33-40 32-40z" stroke="#4881b3" stroke-width="3" fill="#f5fbff"/><use xlink:href="#b" transform="matrix(1,0,0,1,785,1825) translate(62.55 38.4625)"/><path d="M96.88 264.37c2.28-2.42 6.8-4.37 10.12-4.37h225c18.23 0 33 31.34 33 70s-14.77 70-33 70H107c-3.3 0-7.84-1.95-10.12-4.37l-57.76-61.26c-2.28-2.42-2.28-6.32 0-8.74z" stroke="#4881b3" stroke-width="3" fill="#f5fbff"/><use xlink:href="#c" transform="matrix(1,0,0,1,39.99999999999994,265) translate(95.92999999999998 26.5875)"/><use xlink:href="#d" transform="matrix(1,0,0,1,39.99999999999994,265) translate(152.23 26.5875)"/><use xlink:href="#e" transform="matrix(1,0,0,1,39.99999999999994,265) translate(85.68 48.1875)"/><use xlink:href="#f" transform="matrix(1,0,0,1,39.99999999999994,265) translate(105.68 48.1875)"/><use xlink:href="#g" transform="matrix(1,0,0,1,39.99999999999994,265) translate(159.57999999999998 48.1875)"/><use xlink:href="#h" transform="matrix(1,0,0,1,39.99999999999994,265) translate(170.53 48.1875)"/><use xlink:href="#i" transform="matrix(1,0,0,1,39.99999999999994,265) translate(62.605 69.78750000000001)"/><use xlink:href="#j" transform="matrix(1,0,0,1,39.99999999999994,265) translate(82.60499999999999 69.78750000000001)"/><use xlink:href="#g" transform="matrix(1,0,0,1,39.99999999999994,265) translate(165.505 69.78750000000001)"/><use xlink:href="#k" transform="matrix(1,0,0,1,39.99999999999994,265) translate(176.45499999999998 69.78750000000001)"/><use xlink:href="#l" transform="matrix(1,0,0,1,39.99999999999994,265) translate(46.155000000000015 91.38750000000002)"/><use xlink:href="#m" transform="matrix(1,0,0,1,39.99999999999994,265) translate(66.15500000000002 91.38750000000002)"/><use xlink:href="#n" transform="matrix(1,0,0,1,39.99999999999994,265) translate(130.10500000000002 91.38750000000002)"/><use xlink:href="#g" transform="matrix(1,0,0,1,39.99999999999994,265) translate(231.955 91.38750000000002)"/><use xlink:href="#o" transform="matrix(1,0,0,1,39.99999999999994,265) translate(242.905 91.38750000000002)"/><use xlink:href="#p" transform="matrix(1,0,0,1,39.99999999999994,265) translate(133.905 112.98750000000001)"/><path d="M200 182.5V240" stroke="#224c72" stroke-width="2" fill="none"/><path d="M201 182.53h-2v-1.03h2" fill="#224c72"/><path d="M200 255.26L195.36 241h9.28z" stroke="#224c72" stroke-width="2" fill="#224c72"/><path d="M134.45 465.8c.86-3.2 4.24-5.8 7.55-5.8h132c3.3 0 5.3 2.6 4.45 5.8l-12.9 48.4c-.86 3.2-4.24 5.8-7.55 5.8H126c-3.3 0-5.3-2.6-4.45-5.8z" stroke="#4881b3" stroke-width="3" fill="#f5fbff"/><use xlink:href="#q" transform="matrix(1,0,0,1,125,465) translate(21.055 30.025)"/><use xlink:href="#r" transform="matrix(1,0,0,1,125,465) translate(65.005 30.025)"/><path d="M200.6 402.5V440" stroke="#224c72" stroke-width="2" fill="none"/><path d="M201.6 402.53h-2v-1.03h2" fill="#224c72"/><path d="M200.6 455.26L195.98 441h9.28z" stroke="#224c72" stroke-width="2" fill="#224c72"/><path d="M195.2 603.6c2.65-2 6.95-2 9.6 0l70.4 52.8c2.65 2 2.65 5.2 0 7.2l-70.4 52.8c-2.65 2-6.95 2-9.6 0l-70.4-52.8c-2.65-2-2.65-5.2 0-7.2z" stroke="#4881b3" stroke-width="3" fill="#f5fbff"/><use xlink:href="#s" transform="matrix(1,0,0,1,125,605) translate(22.529999999999994 59.0875)"/><use xlink:href="#t" transform="matrix(1,0,0,1,125,605) translate(91.48 59.0875)"/><use xlink:href="#u" transform="matrix(1,0,0,1,125,605) translate(117.48 59.0875)"/><path d="M200 522.5v59.67" stroke="#224c72" stroke-width="2" fill="none"/><path d="M201 522.53h-2v-1.03h2" fill="#224c72"/><path d="M200 597.43l-4.64-14.26h9.28z" stroke="#224c72" stroke-width="2" fill="#224c72"/><path d="M110.7 803.5c2.93-1.56 8-2.83 11.3-2.83h190c15.46 0 28 13.43 28 30s-12.54 30-28 30H122c-3.3 0-8.37-1.27-11.3-2.83L65.3 833.5c-2.93-1.56-2.93-4.1 0-5.66z" stroke="#4881b3" stroke-width="3" fill="#f5fbff"/><use xlink:href="#v" transform="matrix(1,0,0,1,65,805.6705680362552) translate(61.75500000000001 30.025)"/><use xlink:href="#w" transform="matrix(1,0,0,1,65,805.6705680362552) translate(145.005 30.025)"/><use xlink:href="#x" transform="matrix(1,0,0,1,65,805.6705680362552) translate(170.005 30.025)"/><path d="M201 780.67h-2v-10.62h2m0-21.6h-2v-28.12h2" fill="#224c72"/><path d="M201 719.35v1h-2v-1.04M200 795.93l-4.64-14.26h9.28z" fill="#224c72"/><path d="M200 799.17l-6-18.5h12m-9.26 2L200 792.7l3.26-10.03" fill="#224c72"/><use xlink:href="#y" transform="matrix(1,0,0,1,191.5,748.45) translate(0 14.4)"/><path d="M134.45 926.47c.86-3.2 4.24-5.8 7.55-5.8h132c3.3 0 5.3 2.6 4.45 5.8l-12.9 48.4c-.86 3.2-4.24 5.8-7.55 5.8H126c-3.3 0-5.3-2.6-4.45-5.8z" stroke="#4881b3" stroke-width="3" fill="#f5fbff"/><use xlink:href="#q" transform="matrix(1,0,0,1,125,925.6705680362552) translate(22.104999999999997 30.025)"/><use xlink:href="#z" transform="matrix(1,0,0,1,125,925.6705680362552) translate(66.055 30.025)"/><path d="M201.13 863.17v37.5" stroke="#224c72" stroke-width="2" fill="none"/><path d="M202.13 863.2h-2v-1.03h2" fill="#224c72"/><path d="M201.13 915.93l-4.63-14.26h9.27z" stroke="#224c72" stroke-width="2" fill="#224c72"/><path d="M70 1046.67c0-3.3 2.7-6 6-6h248c3.3 0 6 2.7 6 6v48c0 3.3-2.7 6-6 6H76c-3.3 0-6-2.7-6-6z" stroke="#4881b3" stroke-width="3" fill="#f5fbff"/><use xlink:href="#A" transform="matrix(1,0,0,1,82,1052.6705680362552) translate(3.9250000000000114 21.15)"/><use xlink:href="#B" transform="matrix(1,0,0,1,82,1052.6705680362552) translate(114.72500000000001 21.15)"/><use xlink:href="#C" transform="matrix(1,0,0,1,82,1052.6705680362552) translate(130.22500000000002 21.15)"/><use xlink:href="#D" transform="matrix(1,0,0,1,82,1052.6705680362552) translate(197.075 21.15)"/><use xlink:href="#E" transform="matrix(1,0,0,1,82,1052.6705680362552) translate(207.075 21.15)"/><path d="M200 983.17v37.5" stroke="#224c72" stroke-width="2" fill="none"/><path d="M201 983.2h-2v-1.03h2" fill="#224c72"/><path d="M200 1035.93l-4.64-14.26h9.28z" stroke="#224c72" stroke-width="2" fill="#224c72"/><path d="M107.8 1166.47c.84-3.2 4.22-5.8 7.53-5.8h192c3.32 0 5.3 2.6 4.46 5.8l-12.92 48.4c-.85 3.2-4.23 5.8-7.55 5.8h-192c-3.3 0-5.3-2.6-4.45-5.8z" stroke="#4881b3" stroke-width="3" fill="#f5fbff"/><use xlink:href="#F" transform="matrix(1,0,0,1,98.33333333333331,1165.6705680362552) translate(24.604999999999997 30.025)"/><use xlink:href="#G" transform="matrix(1,0,0,1,98.33333333333331,1165.6705680362552) translate(79.60499999999999 30.025)"/><path d="M200 1103.17v37.5" stroke="#224c72" stroke-width="2" fill="none"/><path d="M201 1103.2h-2v-1.03h2" fill="#224c72"/><path d="M200 1155.93l-4.64-14.26h9.28z" stroke="#224c72" stroke-width="2" fill="#224c72"/><path d="M675.2 793.6c2.65-2 6.95-2 9.6 0l70.4 52.8c2.65 2 2.65 5.2 0 7.2l-70.4 52.8c-2.65 2-6.95 2-9.6 0l-70.4-52.8c-2.65-2-2.65-5.2 0-7.2z" stroke="#4881b3" stroke-width="3" fill="#f5fbff"/><use xlink:href="#s" transform="matrix(1,0,0,1,605,795) translate(22.529999999999994 59.0875)"/><use xlink:href="#t" transform="matrix(1,0,0,1,605,795) translate(91.48 59.0875)"/><use xlink:href="#H" transform="matrix(1,0,0,1,605,795) translate(117.48 59.0875)"/><path d="M677.55 659.92l2.53 2.53.92 3.42v106.3h-2V666.13l-.7-2.64-1.8-1.8-2.63-.7H556.12v-2h118m-394.5 2v-2h253.55v2" fill="#224c72"/><path d="M279.64 661h-1.1l.18-.4-.28-1.6h1.2M680 787.43l-4.64-14.26h9.28z" fill="#224c72"/><path d="M680 790.67l-6-18.5h12m-9.26 2L680 784.2l3.26-10.03" fill="#224c72"/><use xlink:href="#I" transform="matrix(1,0,0,1,533.1658465379213,649.2) translate(0 14.4)"/><path d="M590.7 1014.17c2.93-1.56 8-2.83 11.3-2.83h190c15.46 0 28 13.43 28 30s-12.54 30-28 30H602c-3.3 0-8.37-1.27-11.3-2.83l-45.4-24.33c-2.93-1.56-2.93-4.1 0-5.66z" stroke="#4881b3" stroke-width="3" fill="#f5fbff"/><use xlink:href="#v" transform="matrix(1,0,0,1,545,1016.3411360725104) translate(47.25500000000001 30.025)"/><use xlink:href="#w" transform="matrix(1,0,0,1,545,1016.3411360725104) translate(130.505 30.025)"/><use xlink:href="#J" transform="matrix(1,0,0,1,545,1016.3411360725104) translate(155.505 30.025)"/><path d="M681 991.34h-2V970.4h2m0-21.6h-2v-38.47h2" fill="#224c72"/><path d="M681 909.35v1h-2v-1.04M680 1006.6l-4.64-14.26h9.28z" fill="#224c72"/><path d="M680 1009.84l-6-18.5h12m-9.26 2l3.26 10.03 3.26-10.03" fill="#224c72"/><use xlink:href="#y" transform="matrix(1,0,0,1,671.5,948.7852840181276) translate(0 14.4)"/><path d="M614.45 1137.14c.86-3.2 4.24-5.8 7.55-5.8h132c3.3 0 5.3 2.6 4.45 5.8l-12.9 48.4c-.86 3.2-4.24 5.8-7.55 5.8H606c-3.3 0-5.3-2.6-4.45-5.8z" stroke="#4881b3" stroke-width="3" fill="#f5fbff"/><use xlink:href="#q" transform="matrix(1,0,0,1,605,1136.3411360725104) translate(23.555 30.025)"/><use xlink:href="#K" transform="matrix(1,0,0,1,605,1136.3411360725104) translate(67.505 30.025)"/><path d="M681.13 1073.84v37.5" stroke="#224c72" stroke-width="2" fill="none"/><path d="M682.13 1073.87h-2v-1.03h2" fill="#224c72"/><path d="M681.13 1126.6l-4.63-14.26h9.27z" stroke="#224c72" stroke-width="2" fill="#224c72"/><path d="M525 1257.34c0-3.3 2.7-6 6-6h298c3.3 0 6 2.7 6 6v55.2c0 3.3-2.7 6-6 6H531c-3.3 0-6-2.7-6-6z" stroke="#4881b3" stroke-width="3" fill="#f5fbff"/><use xlink:href="#L" transform="matrix(1,0,0,1,536.9999999999999,1263.3411360725104) translate(9.800000000000011 25.4)"/><use xlink:href="#B" transform="matrix(1,0,0,1,536.9999999999999,1263.3411360725104) translate(87.75000000000001 25.4)"/><use xlink:href="#M" transform="matrix(1,0,0,1,536.9999999999999,1263.3411360725104) translate(103.25000000000001 25.4)"/><use xlink:href="#N" transform="matrix(1,0,0,1,536.9999999999999,1263.3411360725104) translate(167.20000000000002 25.4)"/><use xlink:href="#O" transform="matrix(1,0,0,1,536.9999999999999,1263.3411360725104) translate(179.20000000000002 25.4)"/><use xlink:href="#N" transform="matrix(1,0,0,1,536.9999999999999,1263.3411360725104) translate(224.20000000000002 25.4)"/><use xlink:href="#P" transform="matrix(1,0,0,1,536.9999999999999,1263.3411360725104) translate(236.20000000000002 25.4)"/><path d="M680 1193.84v37.5" stroke="#224c72" stroke-width="2" fill="none"/><path d="M681 1193.87h-2v-1.03h2" fill="#224c72"/><path d="M680 1246.6l-4.64-14.26h9.28z" stroke="#224c72" stroke-width="2" fill="#224c72"/><path d="M587.8 1377.14c.84-3.2 4.22-5.8 7.53-5.8h192c3.32 0 5.3 2.6 4.46 5.8l-12.92 48.4c-.85 3.2-4.23 5.8-7.55 5.8h-192c-3.3 0-5.3-2.6-4.45-5.8z" stroke="#4881b3" stroke-width="3" fill="#f5fbff"/><use xlink:href="#F" transform="matrix(1,0,0,1,578.3333333333333,1376.3411360725104) translate(41.029999999999994 30.025)"/><use xlink:href="#Q" transform="matrix(1,0,0,1,578.3333333333333,1376.3411360725104) translate(96.03 30.025)"/><path d="M680 1321.04v30.3" stroke="#224c72" stroke-width="2" fill="none"/><path d="M681 1321.07h-2v-1.03h2" fill="#224c72"/><path d="M680 1366.6l-4.64-14.26h9.28z" stroke="#224c72" stroke-width="2" fill="#224c72"/><path d="M1110.2 1003.6c2.65-2 6.95-2 9.6 0l70.4 52.8c2.65 2 2.65 5.2 0 7.2l-70.4 52.8c-2.65 2-6.95 2-9.6 0l-70.4-52.8c-2.65-2-2.65-5.2 0-7.2z" stroke="#4881b3" stroke-width="3" fill="#f5fbff"/><use xlink:href="#s" transform="matrix(1,0,0,1,1040,1005) translate(22.529999999999994 59.0875)"/><use xlink:href="#t" transform="matrix(1,0,0,1,1040,1005) translate(91.48 59.0875)"/><use xlink:href="#R" transform="matrix(1,0,0,1,1040,1005) translate(117.48 59.0875)"/><path d="M1025.7 1224.17c2.93-1.56 8-2.83 11.3-2.83h190c15.46 0 28 13.43 28 30s-12.54 30-28 30h-190c-3.3 0-8.37-1.27-11.3-2.83l-45.4-24.33c-2.93-1.56-2.93-4.1 0-5.66z" stroke="#4881b3" stroke-width="3" fill="#f5fbff"/><use xlink:href="#v" transform="matrix(1,0,0,1,980,1226.3411360725104) translate(69.405 17.525)"/><use xlink:href="#w" transform="matrix(1,0,0,1,980,1226.3411360725104) translate(152.655 17.525)"/><use xlink:href="#S" transform="matrix(1,0,0,1,980,1226.3411360725104) translate(177.655 17.525)"/><use xlink:href="#T" transform="matrix(1,0,0,1,980,1226.3411360725104) translate(99.405 39.125)"/><path d="M1116 1201.34h-2v-20.95h2m0-21.6h-2v-38.47h2" fill="#224c72"/><path d="M1116 1119.35v1h-2v-1.04M1115 1216.6l-4.64-14.26h9.28z" fill="#224c72"/><path d="M1115 1219.84l-6-18.5h12m-9.26 2l3.26 10.03 3.26-10.03" fill="#224c72"/><g><use xlink:href="#y" transform="matrix(1,0,0,1,1106.5,1158.7852840181276) translate(0 14.4)"/></g><path d="M1049.45 1347.14c.86-3.2 4.24-5.8 7.55-5.8h132c3.3 0 5.3 2.6 4.45 5.8l-12.9 48.4c-.86 3.2-4.24 5.8-7.55 5.8h-132c-3.3 0-5.3-2.6-4.45-5.8z" stroke="#4881b3" stroke-width="3" fill="#f5fbff"/><g><use xlink:href="#U" transform="matrix(1,0,0,1,1040,1346.3411360725104) translate(58.529999999999994 17.525)"/><use xlink:href="#V" transform="matrix(1,0,0,1,1040,1346.3411360725104) translate(16.054999999999993 39.125)"/></g><path d="M1116.13 1283.84v37.5" stroke="#224c72" stroke-width="2" fill="none"/><path d="M1117.13 1283.87h-2v-1.03h2" fill="#224c72"/><path d="M1116.13 1336.6l-4.63-14.26h9.27z" stroke="#224c72" stroke-width="2" fill="#224c72"/><path d="M945 1467.34c0-3.3 2.7-6 6-6h328c3.3 0 6 2.7 6 6v55.2c0 3.3-2.7 6-6 6H951c-3.3 0-6-2.7-6-6z" stroke="#4881b3" stroke-width="3" fill="#f5fbff"/><g><use xlink:href="#W" transform="matrix(1,0,0,1,957.0000000000002,1473.3411360725104) translate(2.125 25.4)"/><use xlink:href="#B" transform="matrix(1,0,0,1,957.0000000000002,1473.3411360725104) translate(77.075 25.4)"/><use xlink:href="#X" transform="matrix(1,0,0,1,957.0000000000002,1473.3411360725104) translate(92.575 25.4)"/><use xlink:href="#Y" transform="matrix(1,0,0,1,957.0000000000002,1473.3411360725104) translate(209.47500000000002 25.4)"/><use xlink:href="#Z" transform="matrix(1,0,0,1,957.0000000000002,1473.3411360725104) translate(226.47500000000002 25.4)"/><use xlink:href="#D" transform="matrix(1,0,0,1,957.0000000000002,1473.3411360725104) translate(247.425 25.4)"/><use xlink:href="#aa" transform="matrix(1,0,0,1,957.0000000000002,1473.3411360725104) translate(257.425 25.4)"/><use xlink:href="#ab" transform="matrix(1,0,0,1,957.0000000000002,1473.3411360725104) translate(278.375 25.4)"/><use xlink:href="#ac" transform="matrix(1,0,0,1,957.0000000000002,1473.3411360725104) translate(293.875 25.4)"/></g><path d="M1115 1403.84v37.5" stroke="#224c72" stroke-width="2" fill="none"/><path d="M1116 1403.87h-2v-1.03h2" fill="#224c72"/><path d="M1115 1456.6l-4.64-14.26h9.28z" stroke="#224c72" stroke-width="2" fill="#224c72"/><path d="M1022.8 1587.14c.84-3.2 4.22-5.8 7.53-5.8h192c3.32 0 5.3 2.6 4.46 5.8l-12.92 48.4c-.85 3.2-4.23 5.8-7.55 5.8h-192c-3.3 0-5.3-2.6-4.45-5.8z" stroke="#4881b3" stroke-width="3" fill="#f5fbff"/><g><use xlink:href="#F" transform="matrix(1,0,0,1,1013.3333333333335,1586.3411360725104) translate(42.529999999999994 30.025)"/><use xlink:href="#ad" transform="matrix(1,0,0,1,1013.3333333333335,1586.3411360725104) translate(97.53 30.025)"/></g><path d="M1115 1531.04v30.3" stroke="#224c72" stroke-width="2" fill="none"/><path d="M1116 1531.07h-2v-1.03h2" fill="#224c72"/><path d="M1115 1576.6l-4.64-14.26h9.28z" stroke="#224c72" stroke-width="2" fill="#224c72"/><path d="M1112.55 849.92l2.53 2.53.92 3.42v126.3h-2V856.13l-.7-2.64-1.8-1.8-2.63-.7h-85.25v-2h85.5m-349.5 2v-2h241.05v2" fill="#224c72"/><path d="M759.64 851h-1.1l.18-.4-.28-1.6h1.2M1115 997.43l-4.64-14.26h9.28z" fill="#224c72"/><path d="M1115 1000.67l-6-18.5h12m-9.26 2l3.26 10.03 3.26-10.03" fill="#224c72"/><g><use xlink:href="#I" transform="matrix(1,0,0,1,1000.6658465379213,839.2) translate(0 14.4)"/></g><path d="M1470.7 1224.17c2.93-1.56 8-2.83 11.3-2.83h190c15.46 0 28 13.43 28 30s-12.54 30-28 30h-190c-3.3 0-8.37-1.27-11.3-2.83l-45.4-24.33c-2.93-1.56-2.93-4.1 0-5.66z" stroke="#4881b3" stroke-width="3" fill="#f5fbff"/><g><use xlink:href="#ae" transform="matrix(1,0,0,1,1425,1226.3411360725104) translate(66.23 30.025)"/><use xlink:href="#af" transform="matrix(1,0,0,1,1425,1226.3411360725104) translate(134.53000000000003 30.025)"/></g><path d="M1557.55 1059.92l2.53 2.53.92 3.42v135.47h-2v-135.2l-.7-2.65-1.8-1.8-2.63-.7h-85.67v-2h85.93m-359.52 2v-2h250.65v2" fill="#224c72"/><path d="M1194.64 1061h-1.1l.18-.4-.28-1.6h1.2M1560 1216.6l-4.64-14.26h9.28z" fill="#224c72"/><path d="M1560 1219.84l-6-18.5h12m-9.26 2l3.26 10.03 3.26-10.03" fill="#224c72"/><g><use xlink:href="#I" transform="matrix(1,0,0,1,1445.251130556049,1049.2) translate(0 14.4)"/></g><path d="M203.33 1223.17V1774c0 3.3 2.7 6 6 6H854c3.3 0 6 2.7 6 6v14" stroke="#224c72" stroke-width="2" fill="none"/><path d="M204.33 1223.2h-2v-1.03h2" fill="#224c72"/><path d="M860 1815.26l-4.64-14.26h9.28z" stroke="#224c72" stroke-width="2" fill="#224c72"/><path d="M683.33 1433.84V1774c0 3.3 2.7 6 6 6H854c3.3 0 6 2.7 6 6v14" stroke="#224c72" stroke-width="2" fill="none"/><path d="M684.33 1433.87h-2v-1.03h2" fill="#224c72"/><path d="M860 1815.26l-4.64-14.26h9.28z" stroke="#224c72" stroke-width="2" fill="#224c72"/><path d="M1118.33 1643.84V1774c0 3.3-2.68 6-6 6H866c-3.3 0-6 2.7-6 6v14" stroke="#224c72" stroke-width="2" fill="none"/><path d="M1119.33 1643.87h-2v-1.03h2" fill="#224c72"/><path d="M860 1815.26l-4.64-14.26h9.28z" stroke="#224c72" stroke-width="2" fill="#224c72"/><path d="M1561.13 1283.84V1774c0 3.3-2.68 6-6 6H866c-3.3 0-6 2.7-6 6v14" stroke="#224c72" stroke-width="2" fill="none"/><path d="M1562.13 1283.87h-2v-1.03h2" fill="#224c72"/><path d="M860 1815.26l-4.64-14.26h9.28z" stroke="#224c72" stroke-width="2" fill="#224c72"/><defs><path fill="#1d262b" d="M33 0v-248h34V0H33" id="ag"/><path fill="#1d262b" d="M117-194c89-4 53 116 60 194h-32v-121c0-31-8-49-39-48C34-167 62-67 57 0H25l-1-190h30c1 10-1 24 2 32 11-22 29-35 61-36" id="ah"/><path fill="#1d262b" d="M24-231v-30h32v30H24zM24 0v-190h32V0H24" id="ai"/><path fill="#1d262b" d="M96-169c-40 0-48 33-48 73s9 75 48 75c24 0 41-14 43-38l32 2c-6 37-31 61-74 61-59 0-76-41-82-99-10-93 101-131 147-64 4 7 5 14 7 22l-32 3c-4-21-16-35-41-35" id="aj"/><path fill="#1d262b" d="M100-194c62-1 85 37 85 99 1 63-27 99-86 99S16-35 15-95c0-66 28-99 85-99zM99-20c44 1 53-31 53-75 0-43-8-75-51-75s-53 32-53 75 10 74 51 75" id="ak"/><g id="a"><use transform="matrix(0.05,0,0,0.05,0,0)" xlink:href="#ag"/><use transform="matrix(0.05,0,0,0.05,5,0)" xlink:href="#ah"/><use transform="matrix(0.05,0,0,0.05,15,0)" xlink:href="#ai"/><use transform="matrix(0.05,0,0,0.05,18.95,0)" xlink:href="#aj"/><use transform="matrix(0.05,0,0,0.05,27.950000000000003,0)" xlink:href="#ai"/><use transform="matrix(0.05,0,0,0.05,31.899999999999995,0)" xlink:href="#ak"/></g><path fill="#1d262b" d="M63-220v92h138v28H63V0H30v-248h175v28H63" id="al"/><g id="b"><use transform="matrix(0.05,0,0,0.05,0,0)" xlink:href="#al"/><use transform="matrix(0.05,0,0,0.05,10.950000000000001,0)" xlink:href="#ai"/><use transform="matrix(0.05,0,0,0.05,14.9,0)" xlink:href="#ah"/></g><path fill="#1d262b" d="M109-170H84l-4-78h32zm-65 0H19l-4-78h33" id="am"/><path fill="#1d262b" d="M240 0l2-218c-23 76-54 145-80 218h-23L58-218 59 0H30v-248h44l77 211c21-75 51-140 76-211h43V0h-30" id="an"/><path fill="#1d262b" d="M100-194c63 0 86 42 84 106H49c0 40 14 67 53 68 26 1 43-12 49-29l28 8c-11 28-37 45-77 45C44 4 14-33 15-96c1-61 26-98 85-98zm52 81c6-60-76-77-97-28-3 7-6 17-6 28h103" id="ao"/><path fill="#1d262b" d="M85 4C-4 8 31-112 24-190h32v120c0 31 7 50 39 49 72-2 45-101 50-169h31l1 190h-30c-1-10 1-25-2-33-11 22-28 36-60 37zM73-211c8-23 27-35 38-54h36v5l-58 49H73" id="ap"/><g id="c"><use transform="matrix(0.05,0,0,0.05,0,0)" xlink:href="#am"/><use transform="matrix(0.05,0,0,0.05,6.3500000000000005,0)" xlink:href="#an"/><use transform="matrix(0.05,0,0,0.05,21.3,0)" xlink:href="#ao"/><use transform="matrix(0.05,0,0,0.05,31.3,0)" xlink:href="#ah"/><use transform="matrix(0.05,0,0,0.05,41.3,0)" xlink:href="#ap"/></g><path fill="#1d262b" d="M212-179c-10-28-35-45-73-45-59 0-87 40-87 99 0 60 29 101 89 101 43 0 62-24 78-52l27 14C228-24 195 4 139 4 59 4 22-46 18-125c-6-104 99-153 187-111 19 9 31 26 39 46" id="aq"/><path fill="#1d262b" d="M108 0H70L1-190h34L89-25l56-165h34" id="ar"/><path fill="#1d262b" d="M114-163C36-179 61-72 57 0H25l-1-190h30c1 12-1 29 2 39 6-27 23-49 58-41v29" id="as"/><path fill="#1d262b" d="M135-143c-3-34-86-38-87 0 15 53 115 12 119 90S17 21 10-45l28-5c4 36 97 45 98 0-10-56-113-15-118-90-4-57 82-63 122-42 12 7 21 19 24 35" id="at"/><g id="d"><use transform="matrix(0.05,0,0,0.05,0,0)" xlink:href="#aq"/><use transform="matrix(0.05,0,0,0.05,12.950000000000001,0)" xlink:href="#ak"/><use transform="matrix(0.05,0,0,0.05,22.950000000000003,0)" xlink:href="#ah"/><use transform="matrix(0.05,0,0,0.05,32.95,0)" xlink:href="#ar"/><use transform="matrix(0.05,0,0,0.05,41.95,0)" xlink:href="#ao"/><use transform="matrix(0.05,0,0,0.05,51.95,0)" xlink:href="#as"/><use transform="matrix(0.05,0,0,0.05,57.900000000000006,0)" xlink:href="#at"/><use transform="matrix(0.05,0,0,0.05,66.9,0)" xlink:href="#ai"/><use transform="matrix(0.05,0,0,0.05,70.85000000000001,0)" xlink:href="#ak"/><use transform="matrix(0.05,0,0,0.05,80.85000000000001,0)" xlink:href="#ah"/><use transform="matrix(0.05,0,0,0.05,90.85000000000001,0)" xlink:href="#ao"/><use transform="matrix(0.05,0,0,0.05,100.85000000000001,0)" xlink:href="#at"/></g><path fill="#1d262b" d="M27 0v-27h64v-190l-56 39v-29l58-41h29v221h61V0H27" id="au"/><path fill="#1d262b" d="M33 0v-38h34V0H33" id="av"/><g id="e"><use transform="matrix(0.05,0,0,0.05,0,0)" xlink:href="#au"/><use transform="matrix(0.05,0,0,0.05,10,0)" xlink:href="#av"/></g><path fill="#1d262b" d="M30 0v-248h33v221h125V0H30" id="aw"/><path fill="#1d262b" d="M115-194c53 0 69 39 70 98 0 66-23 100-70 100C84 3 66-7 56-30L54 0H23l1-261h32v101c10-23 28-34 59-34zm-8 174c40 0 45-34 45-75 0-40-5-75-45-74-42 0-51 32-51 76 0 43 10 73 51 73" id="ax"/><path fill="#1d262b" d="M141-36C126-15 110 5 73 4 37 3 15-17 15-53c-1-64 63-63 125-63 3-35-9-54-41-54-24 1-41 7-42 31l-33-3c5-37 33-52 76-52 45 0 72 20 72 64v82c-1 20 7 32 28 27v20c-31 9-61-2-59-35zM48-53c0 20 12 33 32 33 41-3 63-29 60-74-43 2-92-5-92 41" id="ay"/><g id="f"><use transform="matrix(0.05,0,0,0.05,0,0)" xlink:href="#aw"/><use transform="matrix(0.05,0,0,0.05,10,0)" xlink:href="#ai"/><use transform="matrix(0.05,0,0,0.05,13.949999999999998,0)" xlink:href="#ax"/><use transform="matrix(0.05,0,0,0.05,23.95,0)" xlink:href="#as"/><use transform="matrix(0.05,0,0,0.05,29.899999999999995,0)" xlink:href="#ay"/><use transform="matrix(0.05,0,0,0.05,39.9,0)" xlink:href="#at"/></g><path fill="#1d262b" d="M16-82v-28h88v28H16" id="az"/><use transform="matrix(0.05,0,0,0.05,0,0)" xlink:href="#az" id="g"/><path fill="#1d262b" d="M194 0L95-120 63-95V0H30v-248h33v124l119-124h40L117-140 236 0h-42" id="aA"/><path fill="#1d262b" d="M24 0v-261h32V0H24" id="aB"/><path fill="#1d262b" d="M177-190C167-65 218 103 67 71c-23-6-38-20-44-43l32-5c15 47 100 32 89-28v-30C133-14 115 1 83 1 29 1 15-40 15-95c0-56 16-97 71-98 29-1 48 16 59 35 1-10 0-23 2-32h30zM94-22c36 0 50-32 50-73 0-42-14-75-50-75-39 0-46 34-46 75s6 73 46 73" id="aC"/><path fill="#1d262b" d="M210-169c-67 3-38 105-44 169h-31v-121c0-29-5-50-35-48C34-165 62-65 56 0H25l-1-190h30c1 10-1 24 2 32 10-44 99-50 107 0 11-21 27-35 58-36 85-2 47 119 55 194h-31v-121c0-29-5-49-35-48" id="aD"/><g id="h"><use transform="matrix(0.05,0,0,0.05,0,0)" xlink:href="#aA"/><use transform="matrix(0.05,0,0,0.05,12,0)" xlink:href="#ai"/><use transform="matrix(0.05,0,0,0.05,15.949999999999998,0)" xlink:href="#aB"/><use transform="matrix(0.05,0,0,0.05,19.9,0)" xlink:href="#ak"/><use transform="matrix(0.05,0,0,0.05,29.899999999999995,0)" xlink:href="#aC"/><use transform="matrix(0.05,0,0,0.05,39.9,0)" xlink:href="#as"/><use transform="matrix(0.05,0,0,0.05,45.85,0)" xlink:href="#ay"/><use transform="matrix(0.05,0,0,0.05,55.85,0)" xlink:href="#aD"/><use transform="matrix(0.05,0,0,0.05,70.8,0)" xlink:href="#ak"/><use transform="matrix(0.05,0,0,0.05,80.8,0)" xlink:href="#at"/></g><path fill="#1d262b" d="M101-251c82-7 93 87 43 132L82-64C71-53 59-42 53-27h129V0H18c2-99 128-94 128-182 0-28-16-43-45-43s-46 15-49 41l-32-3c6-41 34-60 81-64" id="aE"/><g id="i"><use transform="matrix(0.05,0,0,0.05,0,0)" xlink:href="#aE"/><use transform="matrix(0.05,0,0,0.05,10,0)" xlink:href="#av"/></g><path fill="#1d262b" d="M127-220V0H93v-220H8v-28h204v28h-85" id="aF"/><path fill="#1d262b" d="M179-190L93 31C79 59 56 82 12 73V49c39 6 53-20 64-50L1-190h34L92-34l54-156h33" id="aG"/><path fill="#1d262b" d="M59-47c-2 24 18 29 38 22v24C64 9 27 4 27-40v-127H5v-23h24l9-43h21v43h35v23H59v120" id="aH"/><g id="j"><use transform="matrix(0.05,0,0,0.05,0,0)" xlink:href="#aF"/><use transform="matrix(0.05,0,0,0.05,8.950000000000001,0)" xlink:href="#ao"/><use transform="matrix(0.05,0,0,0.05,18.950000000000003,0)" xlink:href="#as"/><use transform="matrix(0.05,0,0,0.05,24.900000000000002,0)" xlink:href="#ay"/><use transform="matrix(0.05,0,0,0.05,34.900000000000006,0)" xlink:href="#ax"/><use transform="matrix(0.05,0,0,0.05,44.900000000000006,0)" xlink:href="#aG"/><use transform="matrix(0.05,0,0,0.05,53.900000000000006,0)" xlink:href="#aH"/><use transform="matrix(0.05,0,0,0.05,58.900000000000006,0)" xlink:href="#ao"/><use transform="matrix(0.05,0,0,0.05,68.9,0)" xlink:href="#at"/></g><g id="k"><use transform="matrix(0.05,0,0,0.05,0,0)" xlink:href="#an"/><use transform="matrix(0.05,0,0,0.05,14.950000000000001,0)" xlink:href="#ao"/><use transform="matrix(0.05,0,0,0.05,24.950000000000003,0)" xlink:href="#aC"/><use transform="matrix(0.05,0,0,0.05,34.95,0)" xlink:href="#ay"/><use transform="matrix(0.05,0,0,0.05,44.95,0)" xlink:href="#ax"/><use transform="matrix(0.05,0,0,0.05,54.95,0)" xlink:href="#aG"/><use transform="matrix(0.05,0,0,0.05,63.95,0)" xlink:href="#aH"/><use transform="matrix(0.05,0,0,0.05,68.95,0)" xlink:href="#ao"/><use transform="matrix(0.05,0,0,0.05,78.95,0)" xlink:href="#at"/></g><path fill="#1d262b" d="M126-127c33 6 58 20 58 59 0 88-139 92-164 29-3-8-5-16-6-25l32-3c6 27 21 44 54 44 32 0 52-15 52-46 0-38-36-46-79-43v-28c39 1 72-4 72-42 0-27-17-43-46-43-28 0-47 15-49 41l-32-3c6-42 35-63 81-64 48-1 79 21 79 65 0 36-21 52-52 59" id="aI"/><g id="l"><use transform="matrix(0.05,0,0,0.05,0,0)" xlink:href="#aI"/><use transform="matrix(0.05,0,0,0.05,10,0)" xlink:href="#av"/></g><path fill="#1d262b" d="M143 4C61 4 22-44 18-125c-5-107 100-154 193-111 17 8 29 25 37 43l-32 9c-13-25-37-40-76-40-61 0-88 39-88 99 0 61 29 100 91 101 35 0 62-11 79-27v-45h-74v-28h105v86C228-13 192 4 143 4" id="aJ"/><path fill="#1d262b" d="M85-194c31 0 48 13 60 33l-1-100h32l1 261h-30c-2-10 0-23-3-31C134-8 116 4 85 4 32 4 16-35 15-94c0-66 23-100 70-100zm9 24c-40 0-46 34-46 75 0 40 6 74 45 74 42 0 51-32 51-76 0-42-9-74-50-73" id="aK"/><g id="m"><use transform="matrix(0.05,0,0,0.05,0,0)" xlink:href="#aJ"/><use transform="matrix(0.05,0,0,0.05,14,0)" xlink:href="#as"/><use transform="matrix(0.05,0,0,0.05,19.95,0)" xlink:href="#ay"/><use transform="matrix(0.05,0,0,0.05,29.950000000000003,0)" xlink:href="#aK"/><use transform="matrix(0.05,0,0,0.05,39.95,0)" xlink:href="#ak"/><use transform="matrix(0.05,0,0,0.05,49.95,0)" xlink:href="#at"/></g><g id="n"><use transform="matrix(0.05,0,0,0.05,0,0)" xlink:href="#aq"/><use transform="matrix(0.05,0,0,0.05,12.950000000000001,0)" xlink:href="#ao"/><use transform="matrix(0.05,0,0,0.05,22.950000000000003,0)" xlink:href="#ah"/><use transform="matrix(0.05,0,0,0.05,32.95,0)" xlink:href="#aH"/><use transform="matrix(0.05,0,0,0.05,37.95,0)" xlink:href="#ai"/><use transform="matrix(0.05,0,0,0.05,41.900000000000006,0)" xlink:href="#aC"/><use transform="matrix(0.05,0,0,0.05,51.900000000000006,0)" xlink:href="#as"/><use transform="matrix(0.05,0,0,0.05,57.85,0)" xlink:href="#ay"/><use transform="matrix(0.05,0,0,0.05,67.85000000000001,0)" xlink:href="#aK"/><use transform="matrix(0.05,0,0,0.05,77.85000000000001,0)" xlink:href="#ak"/><use transform="matrix(0.05,0,0,0.05,87.85000000000001,0)" xlink:href="#at"/></g><g id="o"><use transform="matrix(0.05,0,0,0.05,0,0)" xlink:href="#aJ"/><use transform="matrix(0.05,0,0,0.05,14,0)" xlink:href="#as"/><use transform="matrix(0.05,0,0,0.05,19.95,0)" xlink:href="#ay"/><use transform="matrix(0.05,0,0,0.05,29.950000000000003,0)" xlink:href="#aK"/><use transform="matrix(0.05,0,0,0.05,39.95,0)" xlink:href="#ak"/><use transform="matrix(0.05,0,0,0.05,49.95,0)" xlink:href="#at"/></g><path fill="#1d262b" d="M106-169C34-169 62-67 57 0H25v-261h32l-1 103c12-21 28-36 61-36 89 0 53 116 60 194h-32v-121c2-32-8-49-39-48" id="aL"/><g id="p"><use transform="matrix(0.05,0,0,0.05,0,0)" xlink:href="#al"/><use transform="matrix(0.05,0,0,0.05,10.950000000000001,0)" xlink:href="#ay"/><use transform="matrix(0.05,0,0,0.05,20.950000000000003,0)" xlink:href="#aL"/><use transform="matrix(0.05,0,0,0.05,30.950000000000003,0)" xlink:href="#as"/><use transform="matrix(0.05,0,0,0.05,36.900000000000006,0)" xlink:href="#ao"/><use transform="matrix(0.05,0,0,0.05,46.900000000000006,0)" xlink:href="#ah"/><use transform="matrix(0.05,0,0,0.05,56.900000000000006,0)" xlink:href="#aL"/><use transform="matrix(0.05,0,0,0.05,66.9,0)" xlink:href="#ao"/><use transform="matrix(0.05,0,0,0.05,76.9,0)" xlink:href="#ai"/><use transform="matrix(0.05,0,0,0.05,80.85000000000001,0)" xlink:href="#aH"/><use transform="matrix(0.05,0,0,0.05,85.85000000000001,0)" xlink:href="#am"/></g><path fill="#1d262b" d="M115-194c55 1 70 41 70 98S169 2 115 4C84 4 66-9 55-30l1 105H24l-1-265h31l2 30c10-21 28-34 59-34zm-8 174c40 0 45-34 45-75s-6-73-45-74c-42 0-51 32-51 76 0 43 10 73 51 73" id="aM"/><path fill="#1d262b" d="M84 4C-5 8 30-112 23-190h32v120c0 31 7 50 39 49 72-2 45-101 50-169h31l1 190h-30c-1-10 1-25-2-33-11 22-28 36-60 37" id="aN"/><g id="q"><use transform="matrix(0.05,0,0,0.05,0,0)" xlink:href="#ai"/><use transform="matrix(0.05,0,0,0.05,3.95,0)" xlink:href="#ah"/><use transform="matrix(0.05,0,0,0.05,13.949999999999998,0)" xlink:href="#aM"/><use transform="matrix(0.05,0,0,0.05,23.95,0)" xlink:href="#aN"/><use transform="matrix(0.05,0,0,0.05,33.95,0)" xlink:href="#aH"/></g><path fill="#1d262b" d="M-5 72V49h209v23H-5" id="aO"/><g id="r"><use transform="matrix(0.05,0,0,0.05,0,0)" xlink:href="#ar"/><use transform="matrix(0.05,0,0,0.05,9,0)" xlink:href="#aO"/><use transform="matrix(0.05,0,0,0.05,19,0)" xlink:href="#aD"/><use transform="matrix(0.05,0,0,0.05,33.95,0)" xlink:href="#ao"/><use transform="matrix(0.05,0,0,0.05,43.95,0)" xlink:href="#ah"/><use transform="matrix(0.05,0,0,0.05,53.95,0)" xlink:href="#aN"/></g><g id="s"><use transform="matrix(0.05,0,0,0.05,0,0)" xlink:href="#ar"/><use transform="matrix(0.05,0,0,0.05,9,0)" xlink:href="#aO"/><use transform="matrix(0.05,0,0,0.05,19,0)" xlink:href="#aD"/><use transform="matrix(0.05,0,0,0.05,33.95,0)" xlink:href="#ao"/><use transform="matrix(0.05,0,0,0.05,43.95,0)" xlink:href="#ah"/><use transform="matrix(0.05,0,0,0.05,53.95,0)" xlink:href="#aN"/></g><path fill="#1d262b" d="M18-150v-26h174v26H18zm0 90v-26h174v26H18" id="aP"/><g id="t"><use transform="matrix(0.05,0,0,0.05,0,0)" xlink:href="#aP"/><use transform="matrix(0.05,0,0,0.05,10.5,0)" xlink:href="#aP"/></g><use transform="matrix(0.05,0,0,0.05,0,0)" xlink:href="#au" id="u"/><g id="v"><use transform="matrix(0.05,0,0,0.05,0,0)" xlink:href="#am"/><use transform="matrix(0.05,0,0,0.05,6.3500000000000005,0)" xlink:href="#aq"/><use transform="matrix(0.05,0,0,0.05,19.3,0)" xlink:href="#ay"/><use transform="matrix(0.05,0,0,0.05,29.3,0)" xlink:href="#ah"/><use transform="matrix(0.05,0,0,0.05,39.3,0)" xlink:href="#aH"/><use transform="matrix(0.05,0,0,0.05,44.3,0)" xlink:href="#ai"/><use transform="matrix(0.05,0,0,0.05,48.25,0)" xlink:href="#aK"/><use transform="matrix(0.05,0,0,0.05,58.25,0)" xlink:href="#ay"/><use transform="matrix(0.05,0,0,0.05,68.25,0)" xlink:href="#aK"/></g><g id="w"><use transform="matrix(0.05,0,0,0.05,0,0)" xlink:href="#ao"/><use transform="matrix(0.05,0,0,0.05,10,0)" xlink:href="#ah"/></g><g id="x"><use transform="matrix(0.05,0,0,0.05,0,0)" xlink:href="#aw"/><use transform="matrix(0.05,0,0,0.05,10,0)" xlink:href="#ai"/><use transform="matrix(0.05,0,0,0.05,13.949999999999998,0)" xlink:href="#ax"/><use transform="matrix(0.05,0,0,0.05,23.95,0)" xlink:href="#as"/><use transform="matrix(0.05,0,0,0.05,29.899999999999995,0)" xlink:href="#ay"/><use transform="matrix(0.05,0,0,0.05,39.9,0)" xlink:href="#at"/><use transform="matrix(0.05,0,0,0.05,48.9,0)" xlink:href="#am"/></g><path fill="#1d262b" d="M185-189c-5-48-123-54-124 2 14 75 158 14 163 119 3 78-121 87-175 55-17-10-28-26-33-46l33-7c5 56 141 63 141-1 0-78-155-14-162-118-5-82 145-84 179-34 5 7 8 16 11 25" id="aQ"/><path fill="#1d262b" d="M34 0v-190h32V0H34zM24-211c8-23 27-35 38-54h36v5l-58 49H24" id="aR"/><g id="y"><use transform="matrix(0.05,0,0,0.05,0,0)" xlink:href="#aQ"/><use transform="matrix(0.05,0,0,0.05,12,0)" xlink:href="#aR"/></g><g id="z"><use transform="matrix(0.05,0,0,0.05,0,0)" xlink:href="#ar"/><use transform="matrix(0.05,0,0,0.05,9,0)" xlink:href="#aO"/><use transform="matrix(0.05,0,0,0.05,19,0)" xlink:href="#aB"/><use transform="matrix(0.05,0,0,0.05,22.95,0)" xlink:href="#ai"/><use transform="matrix(0.05,0,0,0.05,26.899999999999995,0)" xlink:href="#ax"/><use transform="matrix(0.05,0,0,0.05,36.9,0)" xlink:href="#as"/><use transform="matrix(0.05,0,0,0.05,42.85,0)" xlink:href="#ay"/><use transform="matrix(0.05,0,0,0.05,52.85,0)" xlink:href="#at"/></g><path fill="#1d262b" d="M143 0L79-87 56-68V0H24v-261h32v163l83-92h37l-77 82L181 0h-38" id="aS"/><g id="A"><use transform="matrix(0.05,0,0,0.05,0,0)" xlink:href="#ar"/><use transform="matrix(0.05,0,0,0.05,9,0)" xlink:href="#aO"/><use transform="matrix(0.05,0,0,0.05,19,0)" xlink:href="#aS"/><use transform="matrix(0.05,0,0,0.05,28,0)" xlink:href="#ai"/><use transform="matrix(0.05,0,0,0.05,31.950000000000003,0)" xlink:href="#aB"/><use transform="matrix(0.05,0,0,0.05,35.9,0)" xlink:href="#ak"/><use transform="matrix(0.05,0,0,0.05,45.9,0)" xlink:href="#aC"/><use transform="matrix(0.05,0,0,0.05,55.900000000000006,0)" xlink:href="#as"/><use transform="matrix(0.05,0,0,0.05,61.85,0)" xlink:href="#ay"/><use transform="matrix(0.05,0,0,0.05,71.85,0)" xlink:href="#aD"/><use transform="matrix(0.05,0,0,0.05,86.8,0)" xlink:href="#ak"/><use transform="matrix(0.05,0,0,0.05,96.8,0)" xlink:href="#at"/></g><use transform="matrix(0.05,0,0,0.05,0,0)" xlink:href="#aP" id="B"/><g id="C"><use transform="matrix(0.05,0,0,0.05,0,0)" xlink:href="#ar"/><use transform="matrix(0.05,0,0,0.05,9,0)" xlink:href="#aO"/><use transform="matrix(0.05,0,0,0.05,19,0)" xlink:href="#aB"/><use transform="matrix(0.05,0,0,0.05,22.95,0)" xlink:href="#ai"/><use transform="matrix(0.05,0,0,0.05,26.899999999999995,0)" xlink:href="#ax"/><use transform="matrix(0.05,0,0,0.05,36.9,0)" xlink:href="#as"/><use transform="matrix(0.05,0,0,0.05,42.85,0)" xlink:href="#ay"/><use transform="matrix(0.05,0,0,0.05,52.85,0)" xlink:href="#at"/></g><path fill="#1d262b" d="M0 4l72-265h28L28 4H0" id="aT"/><use transform="matrix(0.05,0,0,0.05,0,0)" xlink:href="#aT" id="D"/><g id="E"><use transform="matrix(0.05,0,0,0.05,0,0)" xlink:href="#aE"/><use transform="matrix(0.05,0,0,0.05,10,0)" xlink:href="#av"/><use transform="matrix(0.05,0,0,0.05,15,0)" xlink:href="#aE"/></g><g id="F"><use transform="matrix(0.05,0,0,0.05,0,0)" xlink:href="#ak"/><use transform="matrix(0.05,0,0,0.05,10,0)" xlink:href="#aN"/><use transform="matrix(0.05,0,0,0.05,20,0)" xlink:href="#aH"/><use transform="matrix(0.05,0,0,0.05,25,0)" xlink:href="#aM"/><use transform="matrix(0.05,0,0,0.05,35,0)" xlink:href="#aN"/><use transform="matrix(0.05,0,0,0.05,45,0)" xlink:href="#aH"/></g><g id="G"><use transform="matrix(0.05,0,0,0.05,0,0)" xlink:href="#ar"/><use transform="matrix(0.05,0,0,0.05,9,0)" xlink:href="#aO"/><use transform="matrix(0.05,0,0,0.05,19,0)" xlink:href="#aS"/><use transform="matrix(0.05,0,0,0.05,28,0)" xlink:href="#ai"/><use transform="matrix(0.05,0,0,0.05,31.950000000000003,0)" xlink:href="#aB"/><use transform="matrix(0.05,0,0,0.05,35.9,0)" xlink:href="#ak"/><use transform="matrix(0.05,0,0,0.05,45.9,0)" xlink:href="#aC"/><use transform="matrix(0.05,0,0,0.05,55.900000000000006,0)" xlink:href="#as"/><use transform="matrix(0.05,0,0,0.05,61.85,0)" xlink:href="#ay"/><use transform="matrix(0.05,0,0,0.05,71.85,0)" xlink:href="#aD"/><use transform="matrix(0.05,0,0,0.05,86.8,0)" xlink:href="#ak"/><use transform="matrix(0.05,0,0,0.05,96.8,0)" xlink:href="#at"/></g><use transform="matrix(0.05,0,0,0.05,0,0)" xlink:href="#aE" id="H"/><path fill="#1d262b" d="M190 0L58-211 59 0H30v-248h39L202-35l-2-213h31V0h-41" id="aU"/><g id="I"><use transform="matrix(0.05,0,0,0.05,0,0)" xlink:href="#aU"/><use transform="matrix(0.05,0,0,0.05,12.950000000000001,0)" xlink:href="#ak"/></g><g id="J"><use transform="matrix(0.05,0,0,0.05,0,0)" xlink:href="#aF"/><use transform="matrix(0.05,0,0,0.05,8.950000000000001,0)" xlink:href="#ao"/><use transform="matrix(0.05,0,0,0.05,18.950000000000003,0)" xlink:href="#as"/><use transform="matrix(0.05,0,0,0.05,24.900000000000002,0)" xlink:href="#ay"/><use transform="matrix(0.05,0,0,0.05,34.900000000000006,0)" xlink:href="#ax"/><use transform="matrix(0.05,0,0,0.05,44.900000000000006,0)" xlink:href="#aG"/><use transform="matrix(0.05,0,0,0.05,53.900000000000006,0)" xlink:href="#aH"/><use transform="matrix(0.05,0,0,0.05,58.900000000000006,0)" xlink:href="#ao"/><use transform="matrix(0.05,0,0,0.05,68.9,0)" xlink:href="#at"/><use transform="matrix(0.05,0,0,0.05,77.9,0)" xlink:href="#am"/></g><g id="K"><use transform="matrix(0.05,0,0,0.05,0,0)" xlink:href="#ar"/><use transform="matrix(0.05,0,0,0.05,9,0)" xlink:href="#aO"/><use transform="matrix(0.05,0,0,0.05,19,0)" xlink:href="#aH"/><use transform="matrix(0.05,0,0,0.05,24,0)" xlink:href="#ao"/><use transform="matrix(0.05,0,0,0.05,34,0)" xlink:href="#as"/><use transform="matrix(0.05,0,0,0.05,39.95,0)" xlink:href="#ay"/><use transform="matrix(0.05,0,0,0.05,49.95,0)" xlink:href="#at"/></g><g id="L"><use transform="matrix(0.05,0,0,0.05,0,0)" xlink:href="#ar"/><use transform="matrix(0.05,0,0,0.05,9,0)" xlink:href="#aO"/><use transform="matrix(0.05,0,0,0.05,19,0)" xlink:href="#aD"/><use transform="matrix(0.05,0,0,0.05,33.95,0)" xlink:href="#ao"/><use transform="matrix(0.05,0,0,0.05,43.95,0)" xlink:href="#aC"/><use transform="matrix(0.05,0,0,0.05,53.95,0)" xlink:href="#ay"/><use transform="matrix(0.05,0,0,0.05,63.95,0)" xlink:href="#at"/></g><g id="M"><use transform="matrix(0.05,0,0,0.05,0,0)" xlink:href="#ar"/><use transform="matrix(0.05,0,0,0.05,9,0)" xlink:href="#aO"/><use transform="matrix(0.05,0,0,0.05,19,0)" xlink:href="#aH"/><use transform="matrix(0.05,0,0,0.05,24,0)" xlink:href="#ao"/><use transform="matrix(0.05,0,0,0.05,34,0)" xlink:href="#as"/><use transform="matrix(0.05,0,0,0.05,39.95,0)" xlink:href="#ay"/><use transform="matrix(0.05,0,0,0.05,49.95,0)" xlink:href="#at"/></g><path fill="#1d262b" d="M80-196l47-18 7 23-49 13 32 44-20 13-27-46-27 45-21-12 33-44-49-13 8-23 47 19-2-53h23" id="aV"/><use transform="matrix(0.05,0,0,0.05,0,0)" xlink:href="#aV" id="N"/><path fill="#1d262b" d="M101-251c68 0 85 55 85 127S166 4 100 4C33 4 14-52 14-124c0-73 17-127 87-127zm-1 229c47 0 54-49 54-102s-4-102-53-102c-51 0-55 48-55 102 0 53 5 102 54 102" id="aW"/><path fill="#1d262b" d="M155-56V0h-30v-56H8v-25l114-167h33v167h35v25h-35zm-30-156c-27 46-58 90-88 131h88v-131" id="aX"/><g id="O"><use transform="matrix(0.05,0,0,0.05,0,0)" xlink:href="#au"/><use transform="matrix(0.05,0,0,0.05,10,0)" xlink:href="#aW"/><use transform="matrix(0.05,0,0,0.05,20,0)" xlink:href="#aE"/><use transform="matrix(0.05,0,0,0.05,30,0)" xlink:href="#aX"/></g><g id="P"><use transform="matrix(0.05,0,0,0.05,0,0)" xlink:href="#au"/><use transform="matrix(0.05,0,0,0.05,10,0)" xlink:href="#aW"/><use transform="matrix(0.05,0,0,0.05,20,0)" xlink:href="#aE"/><use transform="matrix(0.05,0,0,0.05,30,0)" xlink:href="#aX"/></g><g id="Q"><use transform="matrix(0.05,0,0,0.05,0,0)" xlink:href="#ar"/><use transform="matrix(0.05,0,0,0.05,9,0)" xlink:href="#aO"/><use transform="matrix(0.05,0,0,0.05,19,0)" xlink:href="#aD"/><use transform="matrix(0.05,0,0,0.05,33.95,0)" xlink:href="#ao"/><use transform="matrix(0.05,0,0,0.05,43.95,0)" xlink:href="#aC"/><use transform="matrix(0.05,0,0,0.05,53.95,0)" xlink:href="#ay"/><use transform="matrix(0.05,0,0,0.05,63.95,0)" xlink:href="#at"/></g><use transform="matrix(0.05,0,0,0.05,0,0)" xlink:href="#aI" id="R"/><g id="S"><use transform="matrix(0.05,0,0,0.05,0,0)" xlink:href="#aC"/><use transform="matrix(0.05,0,0,0.05,10,0)" xlink:href="#as"/><use transform="matrix(0.05,0,0,0.05,15.949999999999998,0)" xlink:href="#ay"/><use transform="matrix(0.05,0,0,0.05,25.950000000000003,0)" xlink:href="#aK"/><use transform="matrix(0.05,0,0,0.05,35.95,0)" xlink:href="#ak"/><use transform="matrix(0.05,0,0,0.05,45.95,0)" xlink:href="#at"/></g><g id="T"><use transform="matrix(0.05,0,0,0.05,0,0)" xlink:href="#aq"/><use transform="matrix(0.05,0,0,0.05,12.950000000000001,0)" xlink:href="#ao"/><use transform="matrix(0.05,0,0,0.05,22.950000000000003,0)" xlink:href="#ah"/><use transform="matrix(0.05,0,0,0.05,32.95,0)" xlink:href="#aH"/><use transform="matrix(0.05,0,0,0.05,37.95,0)" xlink:href="#ai"/><use transform="matrix(0.05,0,0,0.05,41.900000000000006,0)" xlink:href="#aC"/><use transform="matrix(0.05,0,0,0.05,51.900000000000006,0)" xlink:href="#as"/><use transform="matrix(0.05,0,0,0.05,57.85,0)" xlink:href="#ay"/><use transform="matrix(0.05,0,0,0.05,67.85000000000001,0)" xlink:href="#aK"/><use transform="matrix(0.05,0,0,0.05,77.85000000000001,0)" xlink:href="#ak"/><use transform="matrix(0.05,0,0,0.05,87.85000000000001,0)" xlink:href="#at"/><use transform="matrix(0.05,0,0,0.05,96.85000000000001,0)" xlink:href="#am"/></g><g id="U"><use transform="matrix(0.05,0,0,0.05,0,0)" xlink:href="#ai"/><use transform="matrix(0.05,0,0,0.05,3.95,0)" xlink:href="#ah"/><use transform="matrix(0.05,0,0,0.05,13.949999999999998,0)" xlink:href="#aM"/><use transform="matrix(0.05,0,0,0.05,23.95,0)" xlink:href="#aN"/><use transform="matrix(0.05,0,0,0.05,33.95,0)" xlink:href="#aH"/></g><g id="V"><use transform="matrix(0.05,0,0,0.05,0,0)" xlink:href="#ar"/><use transform="matrix(0.05,0,0,0.05,9,0)" xlink:href="#aO"/><use transform="matrix(0.05,0,0,0.05,19,0)" xlink:href="#aj"/><use transform="matrix(0.05,0,0,0.05,28,0)" xlink:href="#ao"/><use transform="matrix(0.05,0,0,0.05,38,0)" xlink:href="#ah"/><use transform="matrix(0.05,0,0,0.05,48,0)" xlink:href="#aH"/><use transform="matrix(0.05,0,0,0.05,53,0)" xlink:href="#ai"/><use transform="matrix(0.05,0,0,0.05,56.95,0)" xlink:href="#aC"/><use transform="matrix(0.05,0,0,0.05,66.95,0)" xlink:href="#as"/><use transform="matrix(0.05,0,0,0.05,72.9,0)" xlink:href="#ay"/><use transform="matrix(0.05,0,0,0.05,82.9,0)" xlink:href="#aK"/><use transform="matrix(0.05,0,0,0.05,92.9,0)" xlink:href="#ak"/><use transform="matrix(0.05,0,0,0.05,102.9,0)" xlink:href="#at"/></g><path fill="#1d262b" d="M101-234c-31-9-42 10-38 44h38v23H63V0H32v-167H5v-23h27c-7-52 17-82 69-68v24" id="aY"/><g id="W"><use transform="matrix(0.05,0,0,0.05,0,0)" xlink:href="#ar"/><use transform="matrix(0.05,0,0,0.05,9,0)" xlink:href="#aO"/><use transform="matrix(0.05,0,0,0.05,19,0)" xlink:href="#aY"/><use transform="matrix(0.05,0,0,0.05,24,0)" xlink:href="#ay"/><use transform="matrix(0.05,0,0,0.05,34,0)" xlink:href="#aL"/><use transform="matrix(0.05,0,0,0.05,44,0)" xlink:href="#as"/><use transform="matrix(0.05,0,0,0.05,49.95,0)" xlink:href="#ao"/><use transform="matrix(0.05,0,0,0.05,59.95,0)" xlink:href="#ah"/></g><g id="X"><use transform="matrix(0.05,0,0,0.05,0,0)" xlink:href="#ar"/><use transform="matrix(0.05,0,0,0.05,9,0)" xlink:href="#aO"/><use transform="matrix(0.05,0,0,0.05,19,0)" xlink:href="#aj"/><use transform="matrix(0.05,0,0,0.05,28,0)" xlink:href="#ao"/><use transform="matrix(0.05,0,0,0.05,38,0)" xlink:href="#ah"/><use transform="matrix(0.05,0,0,0.05,48,0)" xlink:href="#aH"/><use transform="matrix(0.05,0,0,0.05,53,0)" xlink:href="#ai"/><use transform="matrix(0.05,0,0,0.05,56.95,0)" xlink:href="#aC"/><use transform="matrix(0.05,0,0,0.05,66.95,0)" xlink:href="#as"/><use transform="matrix(0.05,0,0,0.05,72.9,0)" xlink:href="#ay"/><use transform="matrix(0.05,0,0,0.05,82.9,0)" xlink:href="#aK"/><use transform="matrix(0.05,0,0,0.05,92.9,0)" xlink:href="#ak"/><use transform="matrix(0.05,0,0,0.05,102.9,0)" xlink:href="#at"/></g><use transform="matrix(0.05,0,0,0.05,0,0)" xlink:href="#aV" id="Y"/><path fill="#1d262b" d="M87 75C49 33 22-17 22-94c0-76 28-126 65-167h31c-38 41-64 92-64 168S80 34 118 75H87" id="aZ"/><path fill="#1d262b" d="M99-251c64 0 84 50 84 122C183-37 130 33 47-8c-14-7-20-23-25-40l30-5c6 39 69 39 84 7 9-19 16-44 16-74-10 22-31 35-62 35-49 0-73-33-73-83 0-54 28-83 82-83zm-1 141c31-1 51-18 51-49 0-36-14-67-51-67-34 0-49 23-49 58 0 34 15 58 49 58" id="ba"/><g id="Z"><use transform="matrix(0.05,0,0,0.05,0,0)" xlink:href="#aZ"/><use transform="matrix(0.05,0,0,0.05,5.95,0)" xlink:href="#ba"/></g><path fill="#1d262b" d="M54-142c48-35 137-8 131 61C196 18 31 33 14-55l32-4c7 23 22 37 52 37 35-1 51-22 54-58 4-55-73-65-99-34H22l8-134h141v27H59" id="bb"/><path fill="#1d262b" d="M33-261c38 41 65 92 65 168S71 34 33 75H2C39 34 66-17 66-93S39-220 2-261h31" id="bc"/><g id="aa"><use transform="matrix(0.05,0,0,0.05,0,0)" xlink:href="#bb"/><use transform="matrix(0.05,0,0,0.05,10,0)" xlink:href="#bc"/></g><path fill="#1d262b" d="M118-107v75H92v-75H18v-26h74v-75h26v75h74v26h-74" id="bd"/><use transform="matrix(0.05,0,0,0.05,0,0)" xlink:href="#bd" id="ab"/><g id="ac"><use transform="matrix(0.05,0,0,0.05,0,0)" xlink:href="#aI"/><use transform="matrix(0.05,0,0,0.05,10,0)" xlink:href="#aE"/></g><g id="ad"><use transform="matrix(0.05,0,0,0.05,0,0)" xlink:href="#ar"/><use transform="matrix(0.05,0,0,0.05,9,0)" xlink:href="#aO"/><use transform="matrix(0.05,0,0,0.05,19,0)" xlink:href="#aY"/><use transform="matrix(0.05,0,0,0.05,24,0)" xlink:href="#ay"/><use transform="matrix(0.05,0,0,0.05,34,0)" xlink:href="#aL"/><use transform="matrix(0.05,0,0,0.05,44,0)" xlink:href="#as"/><use transform="matrix(0.05,0,0,0.05,49.95,0)" xlink:href="#ao"/><use transform="matrix(0.05,0,0,0.05,59.95,0)" xlink:href="#ah"/></g><path fill="#1d262b" d="M140-251c81 0 123 46 123 126C263-46 219 4 140 4 59 4 17-45 17-125s42-126 123-126zm0 227c63 0 89-41 89-101s-29-99-89-99c-61 0-89 39-89 99S79-25 140-24" id="be"/><path fill="#1d262b" d="M100-194c62-1 85 37 85 99 1 63-27 99-86 99S16-35 15-95c0-66 28-99 85-99zM99-20c44 1 53-31 53-75 0-43-8-75-51-75s-53 32-53 75 10 74 51 75zM76-211c8-23 27-35 38-54h36v5l-58 49H76" id="bf"/><g id="ae"><use transform="matrix(0.05,0,0,0.05,0,0)" xlink:href="#am"/><use transform="matrix(0.05,0,0,0.05,6.3500000000000005,0)" xlink:href="#be"/><use transform="matrix(0.05,0,0,0.05,20.35,0)" xlink:href="#aM"/><use transform="matrix(0.05,0,0,0.05,30.35,0)" xlink:href="#aj"/><use transform="matrix(0.05,0,0,0.05,39.35,0)" xlink:href="#ai"/><use transform="matrix(0.05,0,0,0.05,43.300000000000004,0)" xlink:href="#bf"/><use transform="matrix(0.05,0,0,0.05,53.300000000000004,0)" xlink:href="#ah"/></g><g id="af"><use transform="matrix(0.05,0,0,0.05,0,0)" xlink:href="#ag"/><use transform="matrix(0.05,0,0,0.05,5,0)" xlink:href="#ah"/><use transform="matrix(0.05,0,0,0.05,15,0)" xlink:href="#aj"/><use transform="matrix(0.05,0,0,0.05,24,0)" xlink:href="#ak"/><use transform="matrix(0.05,0,0,0.05,34,0)" xlink:href="#as"/><use transform="matrix(0.05,0,0,0.05,39.95,0)" xlink:href="#as"/><use transform="matrix(0.05,0,0,0.05,45.900000000000006,0)" xlink:href="#ao"/><use transform="matrix(0.05,0,0,0.05,55.900000000000006,0)" xlink:href="#aj"/><use transform="matrix(0.05,0,0,0.05,64.9,0)" xlink:href="#aH"/><use transform="matrix(0.05,0,0,0.05,69.9,0)" xlink:href="#ay"/><use transform="matrix(0.05,0,0,0.05,79.9,0)" xlink:href="#am"/></g></defs></g></svg>