<svg xmlns="http://www.w3.org/2000/svg" xmlns:xlink="http://www.w3.org/1999/xlink" xmlns:lucid="lucid" width="890" height="1980"><g transform="translate(-710 0)" lucid:page-tab-id="0_0"><path d="M948 20c17.67 0 32 17.9 32 40s-14.33 40-32 40h-96c-17.67 0-32-17.9-32-40s14.33-40 32-40z" stroke="#4881b3" stroke-width="3" fill="#f5fbff"/><use xlink:href="#a" transform="matrix(1,0,0,1,825,25) translate(49.1358024691358 39.65277777777778)"/><path d="M948 1880c17.67 0 32 17.9 32 40s-14.33 40-32 40h-96c-17.67 0-32-17.9-32-40s14.33-40 32-40z" stroke="#4881b3" stroke-width="3" fill="#f5fbff"/><use xlink:href="#b" transform="matrix(1,0,0,1,825,1885) translate(59.62962962962963 39.65277777777778)"/><path d="M816.8 173c2.87-1.66 7.9-3 11.2-3h176c14.36 0 26 13.43 26 30s-11.64 30-26 30H828c-3.3 0-8.33-1.34-11.2-3l-41.6-24c-2.87-1.66-2.87-4.34 0-6z" stroke="#4881b3" stroke-width="3" fill="#f5fbff"/><use xlink:href="#c" transform="matrix(1,0,0,1,775,175) translate(23.11611111111112 30.27777777777778)"/><use xlink:href="#d" transform="matrix(1,0,0,1,775,175) translate(115.95561728395063 30.27777777777778)"/><use xlink:href="#e" transform="matrix(1,0,0,1,775,175) translate(151.69635802469136 30.27777777777778)"/><path d="M900 102.5V150" stroke="#224c72" stroke-width="2" fill="none"/><path d="M901 102.53h-2v-1.03h2" fill="#224c72"/><path d="M900 165.26L895.36 151h9.28z" stroke="#224c72" stroke-width="2" fill="#224c72"/><path d="M804.45 305.8c.86-3.2 4.24-5.8 7.55-5.8h192c3.3 0 5.3 2.6 4.45 5.8l-12.9 48.4c-.86 3.2-4.24 5.8-7.55 5.8H796c-3.3 0-5.3-2.6-4.45-5.8z" stroke="#4881b3" stroke-width="3" fill="#f5fbff"/><use xlink:href="#f" transform="matrix(1,0,0,1,795,305) translate(22.467962962962964 30.27777777777778)"/><use xlink:href="#g" transform="matrix(1,0,0,1,795,305) translate(76.72722222222222 30.27777777777778)"/><path d="M900.65 232.5V265h-.02v15" stroke="#224c72" stroke-width="2" fill="none"/><path d="M901.65 232.53h-2v-1.03h2" fill="#224c72"/><path d="M900.63 295.26L896 281h9.27z" stroke="#224c72" stroke-width="2" fill="#224c72"/><path d="M816.8 423c2.87-1.66 7.9-3 11.2-3h176c14.36 0 26 13.43 26 30s-11.64 30-26 30H828c-3.3 0-8.33-1.34-11.2-3l-41.6-24c-2.87-1.66-2.87-4.34 0-6z" stroke="#4881b3" stroke-width="3" fill="#f5fbff"/><use xlink:href="#h" transform="matrix(1,0,0,1,775,425) translate(55.832160493827175 30.27777777777778)"/><use xlink:href="#i" transform="matrix(1,0,0,1,775,425) translate(132.68401234567904 30.27777777777778)"/><path d="M900 362.5V400" stroke="#224c72" stroke-width="2" fill="none"/><path d="M901 362.53h-2v-1.03h2" fill="#224c72"/><path d="M900 415.26L895.36 401h9.28z" stroke="#224c72" stroke-width="2" fill="#224c72"/><path d="M804.45 545.8c.86-3.2 4.24-5.8 7.55-5.8h192c3.3 0 5.3 2.6 4.45 5.8l-12.9 48.4c-.86 3.2-4.24 5.8-7.55 5.8H796c-3.3 0-5.3-2.6-4.45-5.8z" stroke="#4881b3" stroke-width="3" fill="#f5fbff"/><use xlink:href="#f" transform="matrix(1,0,0,1,795,545) translate(35.46179012345679 30.27777777777778)"/><use xlink:href="#j" transform="matrix(1,0,0,1,795,545) translate(89.72104938271605 30.27777777777778)"/><path d="M901.15 482.5V520" stroke="#224c72" stroke-width="2" fill="none"/><path d="M902.15 482.53h-2v-1.03h2" fill="#224c72"/><path d="M901.15 535.26L896.5 521h9.28z" stroke="#224c72" stroke-width="2" fill="#224c72"/><path d="M816.8 663c2.87-1.66 7.9-3 11.2-3h176c14.36 0 26 13.43 26 30s-11.64 30-26 30H828c-3.3 0-8.33-1.34-11.2-3l-41.6-24c-2.87-1.66-2.87-4.34 0-6z" stroke="#4881b3" stroke-width="3" fill="#f5fbff"/><use xlink:href="#k" transform="matrix(1,0,0,1,775,665) translate(36.01734567901235 30.27777777777778)"/><use xlink:href="#l" transform="matrix(1,0,0,1,775,665) translate(138.79512345679012 30.27777777777778)"/><use xlink:href="#m" transform="matrix(1,0,0,1,775,665) translate(157.31364197530866 30.27777777777778)"/><path d="M900 602.5V640" stroke="#224c72" stroke-width="2" fill="none"/><path d="M901 602.53h-2v-1.03h2" fill="#224c72"/><path d="M900 655.26L895.36 641h9.28z" stroke="#224c72" stroke-width="2" fill="#224c72"/><path d="M804.45 795.8c.86-3.2 4.24-5.8 7.55-5.8h192c3.3 0 5.3 2.6 4.45 5.8l-12.9 48.4c-.86 3.2-4.24 5.8-7.55 5.8H796c-3.3 0-5.3-2.6-4.45-5.8z" stroke="#4881b3" stroke-width="3" fill="#f5fbff"/><use xlink:href="#f" transform="matrix(1,0,0,1,795,795) translate(23.70253086419752 30.27777777777778)"/><use xlink:href="#n" transform="matrix(1,0,0,1,795,795) translate(77.96179012345678 30.27777777777778)"/><path d="M901.15 722.5V770" stroke="#224c72" stroke-width="2" fill="none"/><path d="M902.15 722.53h-2v-1.03h2" fill="#224c72"/><path d="M901.15 785.26L896.5 771h9.28z" stroke="#224c72" stroke-width="2" fill="#224c72"/><path d="M730 921c0-3.3 2.7-6 6-6h328c3.3 0 6 2.7 6 6v48c0 3.3-2.7 6-6 6H736c-3.3 0-6-2.7-6-6z" stroke="#4881b3" stroke-width="3" fill="#f5fbff"/><use xlink:href="#o" transform="matrix(1,0,0,1,742,927) translate(6.580246913580254 22.27777777777778)"/><use xlink:href="#p" transform="matrix(1,0,0,1,742,927) translate(78.12345679012346 22.27777777777778)"/><use xlink:href="#q" transform="matrix(1,0,0,1,742,927) translate(97.25925925925925 22.27777777777778)"/><use xlink:href="#r" transform="matrix(1,0,0,1,742,927) translate(187.25925925925924 22.27777777777778)"/><use xlink:href="#n" transform="matrix(1,0,0,1,742,927) translate(202.07407407407405 22.27777777777778)"/><path d="M900 852.5V895" stroke="#224c72" stroke-width="2" fill="none"/><path d="M901 852.53h-2v-1.03h2" fill="#224c72"/><path d="M900 910.26L895.36 896h9.28z" stroke="#224c72" stroke-width="2" fill="#224c72"/><path d="M730 1046c0-3.3 2.7-6 6-6h328c3.3 0 6 2.7 6 6v48c0 3.3-2.7 6-6 6H736c-3.3 0-6-2.7-6-6z" stroke="#4881b3" stroke-width="3" fill="#f5fbff"/><use xlink:href="#s" transform="matrix(1,0,0,1,742,1052) translate(54.66666666666667 22.27777777777778)"/><use xlink:href="#p" transform="matrix(1,0,0,1,742,1052) translate(112.62962962962963 22.27777777777778)"/><use xlink:href="#t" transform="matrix(1,0,0,1,742,1052) translate(131.76543209876542 22.27777777777778)"/><use xlink:href="#r" transform="matrix(1,0,0,1,742,1052) translate(203.30864197530866 22.27777777777778)"/><use xlink:href="#u" transform="matrix(1,0,0,1,742,1052) translate(218.12345679012344 22.27777777777778)"/><path d="M900 977.5v42.5" stroke="#224c72" stroke-width="2" fill="none"/><path d="M901 977.53h-2v-1.03h2" fill="#224c72"/><path d="M900 1035.26l-4.64-14.26h9.28z" stroke="#224c72" stroke-width="2" fill="#224c72"/><path d="M816.8 1163c2.87-1.66 7.9-3 11.2-3h176c14.36 0 26 13.43 26 30s-11.64 30-26 30H828c-3.3 0-8.33-1.34-11.2-3l-41.6-24c-2.87-1.66-2.87-4.34 0-6z" stroke="#4881b3" stroke-width="3" fill="#f5fbff"/><use xlink:href="#v" transform="matrix(1,0,0,1,775,1165) translate(79.19635802469136 30.27777777777778)"/><path d="M900 1102.5v37.5" stroke="#224c72" stroke-width="2" fill="none"/><path d="M901 1102.53h-2v-1.03h2" fill="#224c72"/><path d="M900 1155.26l-4.64-14.26h9.28z" stroke="#224c72" stroke-width="2" fill="#224c72"/><path d="M804.45 1285.8c.86-3.2 4.24-5.8 7.55-5.8h192c3.3 0 5.3 2.6 4.45 5.8l-12.9 48.4c-.86 3.2-4.24 5.8-7.55 5.8H796c-3.3 0-5.3-2.6-4.45-5.8z" stroke="#4881b3" stroke-width="3" fill="#f5fbff"/><use xlink:href="#w" transform="matrix(1,0,0,1,795,1285) translate(15.646975308641979 30.27777777777778)"/><use xlink:href="#g" transform="matrix(1,0,0,1,795,1285) translate(83.54820987654321 30.27777777777778)"/><path d="M901.15 1222.5v37.5" stroke="#224c72" stroke-width="2" fill="none"/><path d="M902.15 1222.53h-2v-1.03h2" fill="#224c72"/><path d="M901.15 1275.26L896.5 1261h9.28z" stroke="#224c72" stroke-width="2" fill="#224c72"/><path d="M804.45 1405.8c.86-3.2 4.24-5.8 7.55-5.8h192c3.3 0 5.3 2.6 4.45 5.8l-12.9 48.4c-.86 3.2-4.24 5.8-7.55 5.8H796c-3.3 0-5.3-2.6-4.45-5.8z" stroke="#4881b3" stroke-width="3" fill="#f5fbff"/><use xlink:href="#w" transform="matrix(1,0,0,1,795,1405) translate(28.6408024691358 30.27777777777778)"/><use xlink:href="#j" transform="matrix(1,0,0,1,795,1405) translate(96.54203703703703 30.27777777777778)"/><path d="M900 1342.5v37.5" stroke="#224c72" stroke-width="2" fill="none"/><path d="M901 1342.53h-2v-1.03h2" fill="#224c72"/><path d="M900 1395.26l-4.64-14.26h9.28z" stroke="#224c72" stroke-width="2" fill="#224c72"/><path d="M804.45 1525.8c.86-3.2 4.24-5.8 7.55-5.8h192c3.3 0 5.3 2.6 4.45 5.8l-12.9 48.4c-.86 3.2-4.24 5.8-7.55 5.8H796c-3.3 0-5.3-2.6-4.45-5.8z" stroke="#4881b3" stroke-width="3" fill="#f5fbff"/><use xlink:href="#w" transform="matrix(1,0,0,1,795,1525) translate(16.881543209876533 30.27777777777778)"/><use xlink:href="#n" transform="matrix(1,0,0,1,795,1525) translate(84.78277777777777 30.27777777777778)"/><path d="M900 1462.5v37.5" stroke="#224c72" stroke-width="2" fill="none"/><path d="M901 1462.53h-2v-1.03h2" fill="#224c72"/><path d="M900 1515.26l-4.64-14.26h9.28z" stroke="#224c72" stroke-width="2" fill="#224c72"/><path d="M804.45 1645.8c.86-3.2 4.24-5.8 7.55-5.8h192c3.3 0 5.3 2.6 4.45 5.8l-12.9 48.4c-.86 3.2-4.24 5.8-7.55 5.8H796c-3.3 0-5.3-2.6-4.45-5.8z" stroke="#4881b3" stroke-width="3" fill="#f5fbff"/><g><use xlink:href="#w" transform="matrix(1,0,0,1,795,1645) translate(37.869197530864206 30.27777777777778)"/><use xlink:href="#x" transform="matrix(1,0,0,1,795,1645) translate(105.77043209876544 30.27777777777778)"/></g><path d="M900 1582.5v37.5" stroke="#224c72" stroke-width="2" fill="none"/><path d="M901 1582.53h-2v-1.03h2" fill="#224c72"/><path d="M900 1635.26l-4.64-14.26h9.28z" stroke="#224c72" stroke-width="2" fill="#224c72"/><path d="M804.45 1765.8c.86-3.2 4.24-5.8 7.55-5.8h192c3.3 0 5.3 2.6 4.45 5.8l-12.9 48.4c-.86 3.2-4.24 5.8-7.55 5.8H796c-3.3 0-5.3-2.6-4.45-5.8z" stroke="#4881b3" stroke-width="3" fill="#f5fbff"/><g><use xlink:href="#w" transform="matrix(1,0,0,1,795,1765) translate(44.65932098765432 30.27777777777778)"/><use xlink:href="#y" transform="matrix(1,0,0,1,795,1765) translate(112.56055555555555 30.27777777777778)"/></g><path d="M900 1702.5v37.5" stroke="#224c72" stroke-width="2" fill="none"/><path d="M901 1702.53h-2v-1.03h2" fill="#224c72"/><path d="M900 1755.26l-4.64-14.26h9.28z" stroke="#224c72" stroke-width="2" fill="#224c72"/><path d="M900 1822.5v37.5" stroke="#224c72" stroke-width="2" fill="none"/><path d="M901 1822.53h-2v-1.03h2" fill="#224c72"/><path d="M900 1875.26l-4.64-14.26h9.28z" stroke="#224c72" stroke-width="2" fill="#224c72"/><path d="M1280 66c0-3.3 2.7-6 6-6h288c3.3 0 6 2.7 6 6v124c0 3.3-2.7 6-6 6h-288c-3.3 0-6-2.7-6-6z" stroke="#4881b3" stroke-width="3" fill="#f5fbff"/><g><use xlink:href="#z" transform="matrix(1,0,0,1,1292,72) translate(35.290123456790155 42.388888888888886)"/><use xlink:href="#A" transform="matrix(1,0,0,1,1292,72) translate(99.06790123456791 42.388888888888886)"/><use xlink:href="#B" transform="matrix(1,0,0,1,1292,72) translate(18.956790123456813 79.72222222222221)"/><use xlink:href="#C" transform="matrix(1,0,0,1,1292,72) translate(137.87037037037038 79.72222222222221)"/></g><path d="M1100 1286c0-3.3 2.7-6 6-6h248c3.3 0 6 2.7 6 6v548c0 3.3-2.7 6-6 6h-248c-3.3 0-6-2.7-6-6z" fill="none"/><path d="M1100 1840c5.52 0 10-4.48 10-10v-260c0-5.52 4.48-10 10-10-5.52 0-10-4.48-10-10v-260c0-5.52-4.48-10-10-10" stroke="#4881b3" stroke-width="3" fill="none"/><g><use xlink:href="#D" transform="matrix(1,0,0,1,1135,1285) translate(3.919753086419746 266.11111111111114)"/><use xlink:href="#E" transform="matrix(1,0,0,1,1135,1285) translate(37.25308641975308 266.11111111111114)"/><use xlink:href="#F" transform="matrix(1,0,0,1,1135,1285) translate(71.75925925925925 266.11111111111114)"/><use xlink:href="#G" transform="matrix(1,0,0,1,1135,1285) translate(139.66049382716048 266.11111111111114)"/><use xlink:href="#H" transform="matrix(1,0,0,1,1135,1285) translate(49.5679012345679 292.77777777777777)"/><use xlink:href="#I" transform="matrix(1,0,0,1,1135,1285) translate(80.4320987654321 292.77777777777777)"/></g><defs><path fill="#1d262b" d="M33 0v-248h34V0H33" id="J"/><path fill="#1d262b" d="M117-194c89-4 53 116 60 194h-32v-121c0-31-8-49-39-48C34-167 62-67 57 0H25l-1-190h30c1 10-1 24 2 32 11-22 29-35 61-36" id="K"/><path fill="#1d262b" d="M24-231v-30h32v30H24zM24 0v-190h32V0H24" id="L"/><path fill="#1d262b" d="M96-169c-40 0-48 33-48 73s9 75 48 75c24 0 41-14 43-38l32 2c-6 37-31 61-74 61-59 0-76-41-82-99-10-93 101-131 147-64 4 7 5 14 7 22l-32 3c-4-21-16-35-41-35" id="M"/><path fill="#1d262b" d="M100-194c62-1 85 37 85 99 1 63-27 99-86 99S16-35 15-95c0-66 28-99 85-99zM99-20c44 1 53-31 53-75 0-43-8-75-51-75s-53 32-53 75 10 74 51 75" id="N"/><g id="a"><use transform="matrix(0.06172839506172839,0,0,0.06172839506172839,0,0)" xlink:href="#J"/><use transform="matrix(0.06172839506172839,0,0,0.06172839506172839,6.172839506172839,0)" xlink:href="#K"/><use transform="matrix(0.06172839506172839,0,0,0.06172839506172839,18.51851851851852,0)" xlink:href="#L"/><use transform="matrix(0.06172839506172839,0,0,0.06172839506172839,23.395061728395063,0)" xlink:href="#M"/><use transform="matrix(0.06172839506172839,0,0,0.06172839506172839,34.50617283950618,0)" xlink:href="#L"/><use transform="matrix(0.06172839506172839,0,0,0.06172839506172839,39.38271604938272,0)" xlink:href="#N"/></g><path fill="#1d262b" d="M63-220v92h138v28H63V0H30v-248h175v28H63" id="O"/><g id="b"><use transform="matrix(0.06172839506172839,0,0,0.06172839506172839,0,0)" xlink:href="#O"/><use transform="matrix(0.06172839506172839,0,0,0.06172839506172839,13.518518518518517,0)" xlink:href="#L"/><use transform="matrix(0.06172839506172839,0,0,0.06172839506172839,18.39506172839506,0)" xlink:href="#K"/></g><path fill="#1d262b" d="M109-170H84l-4-78h32zm-65 0H19l-4-78h33" id="P"/><path fill="#1d262b" d="M190 0L58-211 59 0H30v-248h39L202-35l-2-213h31V0h-41" id="Q"/><path fill="#1d262b" d="M210-169c-67 3-38 105-44 169h-31v-121c0-29-5-50-35-48C34-165 62-65 56 0H25l-1-190h30c1 10-1 24 2 32 10-44 99-50 107 0 11-21 27-35 58-36 85-2 47 119 55 194h-31v-121c0-29-5-49-35-48" id="R"/><path fill="#1d262b" d="M115-194c53 0 69 39 70 98 0 66-23 100-70 100C84 3 66-7 56-30L54 0H23l1-261h32v101c10-23 28-34 59-34zm-8 174c40 0 45-34 45-75 0-40-5-75-45-74-42 0-51 32-51 76 0 43 10 73 51 73" id="S"/><path fill="#1d262b" d="M114-163C36-179 61-72 57 0H25l-1-190h30c1 12-1 29 2 39 6-27 23-49 58-41v29" id="T"/><path fill="#1d262b" d="M100-194c63 0 86 42 84 106H49c0 40 14 67 53 68 26 1 43-12 49-29l28 8c-11 28-37 45-77 45C44 4 14-33 15-96c1-61 26-98 85-98zm52 81c6-60-76-77-97-28-3 7-6 17-6 28h103" id="U"/><g id="c"><use transform="matrix(0.06172839506172839,0,0,0.06172839506172839,0,0)" xlink:href="#P"/><use transform="matrix(0.06172839506172839,0,0,0.06172839506172839,7.8395061728395055,0)" xlink:href="#Q"/><use transform="matrix(0.06172839506172839,0,0,0.06172839506172839,23.827160493827158,0)" xlink:href="#N"/><use transform="matrix(0.06172839506172839,0,0,0.06172839506172839,36.172839506172835,0)" xlink:href="#R"/><use transform="matrix(0.06172839506172839,0,0,0.06172839506172839,54.62962962962962,0)" xlink:href="#S"/><use transform="matrix(0.06172839506172839,0,0,0.06172839506172839,66.9753086419753,0)" xlink:href="#T"/><use transform="matrix(0.06172839506172839,0,0,0.06172839506172839,74.32098765432099,0)" xlink:href="#U"/></g><path fill="#1d262b" d="M85-194c31 0 48 13 60 33l-1-100h32l1 261h-30c-2-10 0-23-3-31C134-8 116 4 85 4 32 4 16-35 15-94c0-66 23-100 70-100zm9 24c-40 0-46 34-46 75 0 40 6 74 45 74 42 0 51-32 51-76 0-42-9-74-50-73" id="V"/><path fill="#1d262b" d="M24 0v-261h32V0H24" id="W"/><g id="d"><use transform="matrix(0.06172839506172839,0,0,0.06172839506172839,0,0)" xlink:href="#V"/><use transform="matrix(0.06172839506172839,0,0,0.06172839506172839,12.345679012345679,0)" xlink:href="#U"/><use transform="matrix(0.06172839506172839,0,0,0.06172839506172839,24.691358024691358,0)" xlink:href="#W"/></g><path fill="#1d262b" d="M115-194c55 1 70 41 70 98S169 2 115 4C84 4 66-9 55-30l1 105H24l-1-265h31l2 30c10-21 28-34 59-34zm-8 174c40 0 45-34 45-75s-6-73-45-74c-42 0-51 32-51 76 0 43 10 73 51 73" id="X"/><path fill="#1d262b" d="M84 4C-5 8 30-112 23-190h32v120c0 31 7 50 39 49 72-2 45-101 50-169h31l1 190h-30c-1-10 1-25-2-33-11 22-28 36-60 37" id="Y"/><path fill="#1d262b" d="M59-47c-2 24 18 29 38 22v24C64 9 27 4 27-40v-127H5v-23h24l9-43h21v43h35v23H59v120" id="Z"/><g id="e"><use transform="matrix(0.06172839506172839,0,0,0.06172839506172839,0,0)" xlink:href="#X"/><use transform="matrix(0.06172839506172839,0,0,0.06172839506172839,12.345679012345679,0)" xlink:href="#T"/><use transform="matrix(0.06172839506172839,0,0,0.06172839506172839,19.691358024691358,0)" xlink:href="#N"/><use transform="matrix(0.06172839506172839,0,0,0.06172839506172839,32.03703703703704,0)" xlink:href="#V"/><use transform="matrix(0.06172839506172839,0,0,0.06172839506172839,44.382716049382715,0)" xlink:href="#Y"/><use transform="matrix(0.06172839506172839,0,0,0.06172839506172839,56.72839506172839,0)" xlink:href="#M"/><use transform="matrix(0.06172839506172839,0,0,0.06172839506172839,67.8395061728395,0)" xlink:href="#Z"/><use transform="matrix(0.06172839506172839,0,0,0.06172839506172839,74.01234567901234,0)" xlink:href="#N"/><use transform="matrix(0.06172839506172839,0,0,0.06172839506172839,86.35802469135803,0)" xlink:href="#P"/></g><g id="f"><use transform="matrix(0.06172839506172839,0,0,0.06172839506172839,0,0)" xlink:href="#L"/><use transform="matrix(0.06172839506172839,0,0,0.06172839506172839,4.876543209876543,0)" xlink:href="#K"/><use transform="matrix(0.06172839506172839,0,0,0.06172839506172839,17.22222222222222,0)" xlink:href="#X"/><use transform="matrix(0.06172839506172839,0,0,0.06172839506172839,29.5679012345679,0)" xlink:href="#Y"/><use transform="matrix(0.06172839506172839,0,0,0.06172839506172839,41.913580246913575,0)" xlink:href="#Z"/></g><path fill="#1d262b" d="M108 0H70L1-190h34L89-25l56-165h34" id="aa"/><path fill="#1d262b" d="M-5 72V49h209v23H-5" id="ab"/><g id="g"><use transform="matrix(0.06172839506172839,0,0,0.06172839506172839,0,0)" xlink:href="#aa"/><use transform="matrix(0.06172839506172839,0,0,0.06172839506172839,11.11111111111111,0)" xlink:href="#ab"/><use transform="matrix(0.06172839506172839,0,0,0.06172839506172839,23.45679012345679,0)" xlink:href="#X"/><use transform="matrix(0.06172839506172839,0,0,0.06172839506172839,35.80246913580247,0)" xlink:href="#T"/><use transform="matrix(0.06172839506172839,0,0,0.06172839506172839,43.148148148148145,0)" xlink:href="#N"/><use transform="matrix(0.06172839506172839,0,0,0.06172839506172839,55.49382716049382,0)" xlink:href="#V"/><use transform="matrix(0.06172839506172839,0,0,0.06172839506172839,67.8395061728395,0)" xlink:href="#Y"/><use transform="matrix(0.06172839506172839,0,0,0.06172839506172839,80.18518518518519,0)" xlink:href="#M"/><use transform="matrix(0.06172839506172839,0,0,0.06172839506172839,91.2962962962963,0)" xlink:href="#Z"/><use transform="matrix(0.06172839506172839,0,0,0.06172839506172839,97.46913580246914,0)" xlink:href="#N"/></g><path fill="#1d262b" d="M30-248c87 1 191-15 191 75 0 78-77 80-158 76V0H30v-248zm33 125c57 0 124 11 124-50 0-59-68-47-124-48v98" id="ac"/><g id="h"><use transform="matrix(0.06172839506172839,0,0,0.06172839506172839,0,0)" xlink:href="#P"/><use transform="matrix(0.06172839506172839,0,0,0.06172839506172839,7.8395061728395055,0)" xlink:href="#ac"/><use transform="matrix(0.06172839506172839,0,0,0.06172839506172839,22.65432098765432,0)" xlink:href="#T"/><use transform="matrix(0.06172839506172839,0,0,0.06172839506172839,30,0)" xlink:href="#U"/><use transform="matrix(0.06172839506172839,0,0,0.06172839506172839,42.34567901234568,0)" xlink:href="#M"/><use transform="matrix(0.06172839506172839,0,0,0.06172839506172839,53.456790123456784,0)" xlink:href="#L"/><use transform="matrix(0.06172839506172839,0,0,0.06172839506172839,58.33333333333333,0)" xlink:href="#N"/></g><path fill="#1d262b" d="M141-36C126-15 110 5 73 4 37 3 15-17 15-53c-1-64 63-63 125-63 3-35-9-54-41-54-24 1-41 7-42 31l-33-3c5-37 33-52 76-52 45 0 72 20 72 64v82c-1 20 7 32 28 27v20c-31 9-61-2-59-35zM48-53c0 20 12 33 32 33 41-3 63-29 60-74-43 2-92-5-92 41" id="ad"/><g id="i"><use transform="matrix(0.06172839506172839,0,0,0.06172839506172839,0,0)" xlink:href="#Y"/><use transform="matrix(0.06172839506172839,0,0,0.06172839506172839,12.345679012345679,0)" xlink:href="#K"/><use transform="matrix(0.06172839506172839,0,0,0.06172839506172839,24.691358024691358,0)" xlink:href="#L"/><use transform="matrix(0.06172839506172839,0,0,0.06172839506172839,29.5679012345679,0)" xlink:href="#Z"/><use transform="matrix(0.06172839506172839,0,0,0.06172839506172839,35.74074074074074,0)" xlink:href="#ad"/><use transform="matrix(0.06172839506172839,0,0,0.06172839506172839,48.08641975308642,0)" xlink:href="#T"/><use transform="matrix(0.06172839506172839,0,0,0.06172839506172839,55.432098765432094,0)" xlink:href="#L"/><use transform="matrix(0.06172839506172839,0,0,0.06172839506172839,60.30864197530864,0)" xlink:href="#N"/><use transform="matrix(0.06172839506172839,0,0,0.06172839506172839,72.65432098765432,0)" xlink:href="#P"/></g><g id="j"><use transform="matrix(0.06172839506172839,0,0,0.06172839506172839,0,0)" xlink:href="#aa"/><use transform="matrix(0.06172839506172839,0,0,0.06172839506172839,11.11111111111111,0)" xlink:href="#ab"/><use transform="matrix(0.06172839506172839,0,0,0.06172839506172839,23.45679012345679,0)" xlink:href="#X"/><use transform="matrix(0.06172839506172839,0,0,0.06172839506172839,35.80246913580247,0)" xlink:href="#T"/><use transform="matrix(0.06172839506172839,0,0,0.06172839506172839,43.148148148148145,0)" xlink:href="#U"/><use transform="matrix(0.06172839506172839,0,0,0.06172839506172839,55.49382716049382,0)" xlink:href="#M"/><use transform="matrix(0.06172839506172839,0,0,0.06172839506172839,66.60493827160494,0)" xlink:href="#L"/><use transform="matrix(0.06172839506172839,0,0,0.06172839506172839,71.48148148148148,0)" xlink:href="#N"/></g><path fill="#1d262b" d="M212-179c-10-28-35-45-73-45-59 0-87 40-87 99 0 60 29 101 89 101 43 0 62-24 78-52l27 14C228-24 195 4 139 4 59 4 22-46 18-125c-6-104 99-153 187-111 19 9 31 26 39 46" id="ae"/><g id="k"><use transform="matrix(0.06172839506172839,0,0,0.06172839506172839,0,0)" xlink:href="#P"/><use transform="matrix(0.06172839506172839,0,0,0.06172839506172839,7.8395061728395055,0)" xlink:href="#ae"/><use transform="matrix(0.06172839506172839,0,0,0.06172839506172839,23.827160493827158,0)" xlink:href="#ad"/><use transform="matrix(0.06172839506172839,0,0,0.06172839506172839,36.172839506172835,0)" xlink:href="#K"/><use transform="matrix(0.06172839506172839,0,0,0.06172839506172839,48.51851851851851,0)" xlink:href="#Z"/><use transform="matrix(0.06172839506172839,0,0,0.06172839506172839,54.691358024691354,0)" xlink:href="#L"/><use transform="matrix(0.06172839506172839,0,0,0.06172839506172839,59.5679012345679,0)" xlink:href="#V"/><use transform="matrix(0.06172839506172839,0,0,0.06172839506172839,71.91358024691358,0)" xlink:href="#ad"/><use transform="matrix(0.06172839506172839,0,0,0.06172839506172839,84.25925925925927,0)" xlink:href="#V"/></g><use transform="matrix(0.06172839506172839,0,0,0.06172839506172839,0,0)" xlink:href="#ad" id="l"/><g id="m"><use transform="matrix(0.06172839506172839,0,0,0.06172839506172839,0,0)" xlink:href="#aa"/><use transform="matrix(0.06172839506172839,0,0,0.06172839506172839,11.11111111111111,0)" xlink:href="#U"/><use transform="matrix(0.06172839506172839,0,0,0.06172839506172839,23.45679012345679,0)" xlink:href="#K"/><use transform="matrix(0.06172839506172839,0,0,0.06172839506172839,35.80246913580247,0)" xlink:href="#V"/><use transform="matrix(0.06172839506172839,0,0,0.06172839506172839,48.148148148148145,0)" xlink:href="#U"/><use transform="matrix(0.06172839506172839,0,0,0.06172839506172839,60.49382716049382,0)" xlink:href="#T"/><use transform="matrix(0.06172839506172839,0,0,0.06172839506172839,67.8395061728395,0)" xlink:href="#P"/></g><g id="n"><use transform="matrix(0.06172839506172839,0,0,0.06172839506172839,0,0)" xlink:href="#aa"/><use transform="matrix(0.06172839506172839,0,0,0.06172839506172839,11.11111111111111,0)" xlink:href="#ab"/><use transform="matrix(0.06172839506172839,0,0,0.06172839506172839,23.45679012345679,0)" xlink:href="#M"/><use transform="matrix(0.06172839506172839,0,0,0.06172839506172839,34.5679012345679,0)" xlink:href="#ad"/><use transform="matrix(0.06172839506172839,0,0,0.06172839506172839,46.913580246913575,0)" xlink:href="#K"/><use transform="matrix(0.06172839506172839,0,0,0.06172839506172839,59.25925925925925,0)" xlink:href="#Z"/><use transform="matrix(0.06172839506172839,0,0,0.06172839506172839,65.43209876543209,0)" xlink:href="#L"/><use transform="matrix(0.06172839506172839,0,0,0.06172839506172839,70.30864197530863,0)" xlink:href="#V"/><use transform="matrix(0.06172839506172839,0,0,0.06172839506172839,82.65432098765432,0)" xlink:href="#ad"/><use transform="matrix(0.06172839506172839,0,0,0.06172839506172839,95,0)" xlink:href="#V"/></g><g id="o"><use transform="matrix(0.06172839506172839,0,0,0.06172839506172839,0,0)" xlink:href="#aa"/><use transform="matrix(0.06172839506172839,0,0,0.06172839506172839,11.11111111111111,0)" xlink:href="#ab"/><use transform="matrix(0.06172839506172839,0,0,0.06172839506172839,23.45679012345679,0)" xlink:href="#Z"/><use transform="matrix(0.06172839506172839,0,0,0.06172839506172839,29.62962962962963,0)" xlink:href="#N"/><use transform="matrix(0.06172839506172839,0,0,0.06172839506172839,41.97530864197531,0)" xlink:href="#Z"/><use transform="matrix(0.06172839506172839,0,0,0.06172839506172839,48.14814814814815,0)" xlink:href="#ad"/><use transform="matrix(0.06172839506172839,0,0,0.06172839506172839,60.49382716049383,0)" xlink:href="#W"/></g><path fill="#1d262b" d="M18-150v-26h174v26H18zm0 90v-26h174v26H18" id="af"/><use transform="matrix(0.06172839506172839,0,0,0.06172839506172839,0,0)" xlink:href="#af" id="p"/><g id="q"><use transform="matrix(0.06172839506172839,0,0,0.06172839506172839,0,0)" xlink:href="#aa"/><use transform="matrix(0.06172839506172839,0,0,0.06172839506172839,11.11111111111111,0)" xlink:href="#ab"/><use transform="matrix(0.06172839506172839,0,0,0.06172839506172839,23.45679012345679,0)" xlink:href="#X"/><use transform="matrix(0.06172839506172839,0,0,0.06172839506172839,35.80246913580247,0)" xlink:href="#T"/><use transform="matrix(0.06172839506172839,0,0,0.06172839506172839,43.148148148148145,0)" xlink:href="#U"/><use transform="matrix(0.06172839506172839,0,0,0.06172839506172839,55.49382716049382,0)" xlink:href="#M"/><use transform="matrix(0.06172839506172839,0,0,0.06172839506172839,66.60493827160494,0)" xlink:href="#L"/><use transform="matrix(0.06172839506172839,0,0,0.06172839506172839,71.48148148148148,0)" xlink:href="#N"/></g><path fill="#1d262b" d="M80-196l47-18 7 23-49 13 32 44-20 13-27-46-27 45-21-12 33-44-49-13 8-23 47 19-2-53h23" id="ag"/><use transform="matrix(0.06172839506172839,0,0,0.06172839506172839,0,0)" xlink:href="#ag" id="r"/><g id="s"><use transform="matrix(0.06172839506172839,0,0,0.06172839506172839,0,0)" xlink:href="#aa"/><use transform="matrix(0.06172839506172839,0,0,0.06172839506172839,11.11111111111111,0)" xlink:href="#ab"/><use transform="matrix(0.06172839506172839,0,0,0.06172839506172839,23.45679012345679,0)" xlink:href="#L"/><use transform="matrix(0.06172839506172839,0,0,0.06172839506172839,28.333333333333336,0)" xlink:href="#aa"/><use transform="matrix(0.06172839506172839,0,0,0.06172839506172839,39.44444444444444,0)" xlink:href="#ad"/></g><g id="t"><use transform="matrix(0.06172839506172839,0,0,0.06172839506172839,0,0)" xlink:href="#aa"/><use transform="matrix(0.06172839506172839,0,0,0.06172839506172839,11.11111111111111,0)" xlink:href="#ab"/><use transform="matrix(0.06172839506172839,0,0,0.06172839506172839,23.45679012345679,0)" xlink:href="#Z"/><use transform="matrix(0.06172839506172839,0,0,0.06172839506172839,29.62962962962963,0)" xlink:href="#N"/><use transform="matrix(0.06172839506172839,0,0,0.06172839506172839,41.97530864197531,0)" xlink:href="#Z"/><use transform="matrix(0.06172839506172839,0,0,0.06172839506172839,48.14814814814815,0)" xlink:href="#ad"/><use transform="matrix(0.06172839506172839,0,0,0.06172839506172839,60.49382716049383,0)" xlink:href="#W"/></g><path fill="#1d262b" d="M101-251c68 0 85 55 85 127S166 4 100 4C33 4 14-52 14-124c0-73 17-127 87-127zm-1 229c47 0 54-49 54-102s-4-102-53-102c-51 0-55 48-55 102 0 53 5 102 54 102" id="ah"/><path fill="#1d262b" d="M33 0v-38h34V0H33" id="ai"/><path fill="#1d262b" d="M27 0v-27h64v-190l-56 39v-29l58-41h29v221h61V0H27" id="aj"/><path fill="#1d262b" d="M101-251c82-7 93 87 43 132L82-64C71-53 59-42 53-27h129V0H18c2-99 128-94 128-182 0-28-16-43-45-43s-46 15-49 41l-32-3c6-41 34-60 81-64" id="ak"/><g id="u"><use transform="matrix(0.06172839506172839,0,0,0.06172839506172839,0,0)" xlink:href="#ah"/><use transform="matrix(0.06172839506172839,0,0,0.06172839506172839,12.345679012345679,0)" xlink:href="#ai"/><use transform="matrix(0.06172839506172839,0,0,0.06172839506172839,18.51851851851852,0)" xlink:href="#aj"/><use transform="matrix(0.06172839506172839,0,0,0.06172839506172839,30.864197530864196,0)" xlink:href="#ak"/></g><path fill="#1d262b" d="M233-177c-1 41-23 64-60 70L243 0h-38l-65-103H63V0H30v-248c88 3 205-21 203 71zM63-129c60-2 137 13 137-47 0-61-80-42-137-45v92" id="al"/><path fill="#1d262b" d="M135-143c-3-34-86-38-87 0 15 53 115 12 119 90S17 21 10-45l28-5c4 36 97 45 98 0-10-56-113-15-118-90-4-57 82-63 122-42 12 7 21 19 24 35" id="am"/><g id="v"><use transform="matrix(0.06172839506172839,0,0,0.06172839506172839,0,0)" xlink:href="#P"/><use transform="matrix(0.06172839506172839,0,0,0.06172839506172839,7.8395061728395055,0)" xlink:href="#al"/><use transform="matrix(0.06172839506172839,0,0,0.06172839506172839,23.827160493827158,0)" xlink:href="#U"/><use transform="matrix(0.06172839506172839,0,0,0.06172839506172839,36.172839506172835,0)" xlink:href="#am"/><use transform="matrix(0.06172839506172839,0,0,0.06172839506172839,47.28395061728395,0)" xlink:href="#Y"/><use transform="matrix(0.06172839506172839,0,0,0.06172839506172839,59.629629629629626,0)" xlink:href="#R"/><use transform="matrix(0.06172839506172839,0,0,0.06172839506172839,78.08641975308642,0)" xlink:href="#U"/><use transform="matrix(0.06172839506172839,0,0,0.06172839506172839,90.4320987654321,0)" xlink:href="#K"/><use transform="matrix(0.06172839506172839,0,0,0.06172839506172839,102.77777777777779,0)" xlink:href="#P"/></g><g id="w"><use transform="matrix(0.06172839506172839,0,0,0.06172839506172839,0,0)" xlink:href="#N"/><use transform="matrix(0.06172839506172839,0,0,0.06172839506172839,12.345679012345679,0)" xlink:href="#Y"/><use transform="matrix(0.06172839506172839,0,0,0.06172839506172839,24.691358024691358,0)" xlink:href="#Z"/><use transform="matrix(0.06172839506172839,0,0,0.06172839506172839,30.864197530864196,0)" xlink:href="#X"/><use transform="matrix(0.06172839506172839,0,0,0.06172839506172839,43.20987654320987,0)" xlink:href="#Y"/><use transform="matrix(0.06172839506172839,0,0,0.06172839506172839,55.55555555555555,0)" xlink:href="#Z"/></g><g id="x"><use transform="matrix(0.06172839506172839,0,0,0.06172839506172839,0,0)" xlink:href="#aa"/><use transform="matrix(0.06172839506172839,0,0,0.06172839506172839,11.11111111111111,0)" xlink:href="#ab"/><use transform="matrix(0.06172839506172839,0,0,0.06172839506172839,23.45679012345679,0)" xlink:href="#Z"/><use transform="matrix(0.06172839506172839,0,0,0.06172839506172839,29.62962962962963,0)" xlink:href="#N"/><use transform="matrix(0.06172839506172839,0,0,0.06172839506172839,41.97530864197531,0)" xlink:href="#Z"/><use transform="matrix(0.06172839506172839,0,0,0.06172839506172839,48.14814814814815,0)" xlink:href="#ad"/><use transform="matrix(0.06172839506172839,0,0,0.06172839506172839,60.49382716049383,0)" xlink:href="#W"/></g><g id="y"><use transform="matrix(0.06172839506172839,0,0,0.06172839506172839,0,0)" xlink:href="#aa"/><use transform="matrix(0.06172839506172839,0,0,0.06172839506172839,11.11111111111111,0)" xlink:href="#ab"/><use transform="matrix(0.06172839506172839,0,0,0.06172839506172839,23.45679012345679,0)" xlink:href="#L"/><use transform="matrix(0.06172839506172839,0,0,0.06172839506172839,28.333333333333336,0)" xlink:href="#aa"/><use transform="matrix(0.06172839506172839,0,0,0.06172839506172839,39.44444444444444,0)" xlink:href="#ad"/></g><path fill="#1d262b" d="M24 0v-248h52v208h133V0H24" id="an"/><path fill="#1d262b" d="M110-194c64 0 96 36 96 99 0 64-35 99-97 99-61 0-95-36-95-99 0-62 34-99 96-99zm-1 164c35 0 45-28 45-65 0-40-10-65-43-65-34 0-45 26-45 65 0 36 10 65 43 65" id="ao"/><path fill="#1d262b" d="M137-138c1-29-70-34-71-4 15 46 118 7 119 86 1 83-164 76-172 9l43-7c4 19 20 25 44 25 33 8 57-30 24-41C81-84 22-81 20-136c-2-80 154-74 161-7" id="ap"/><g id="z"><use transform="matrix(0.08641975308641973,0,0,0.08641975308641973,0,0)" xlink:href="#an"/><use transform="matrix(0.08641975308641973,0,0,0.08641975308641973,18.92592592592592,0)" xlink:href="#ao"/><use transform="matrix(0.08641975308641973,0,0,0.08641975308641973,37.85185185185184,0)" xlink:href="#ap"/></g><path fill="#1d262b" d="M220-157c-53 9-28 100-34 157h-49v-107c1-27-5-49-29-50C55-147 81-57 75 0H25l-1-190h47c2 12-1 28 3 38 10-53 101-56 108 0 13-22 24-43 59-42 82 1 51 116 57 194h-49v-107c-1-25-5-48-29-50" id="aq"/><path fill="#1d262b" d="M185-48c-13 30-37 53-82 52C43 2 14-33 14-96s30-98 90-98c62 0 83 45 84 108H66c0 31 8 55 39 56 18 0 30-7 34-22zm-45-69c5-46-57-63-70-21-2 6-4 13-4 21h74" id="ar"/><path fill="#1d262b" d="M135-194c87-1 58 113 63 194h-50c-7-57 23-157-34-157-59 0-34 97-39 157H25l-1-190h47c2 12-1 28 3 38 12-26 28-41 61-42" id="as"/><path fill="#1d262b" d="M133-34C117-15 103 5 69 4 32 3 11-16 11-54c-1-60 55-63 116-61 1-26-3-47-28-47-18 1-26 9-28 27l-52-2c7-38 36-58 82-57s74 22 75 68l1 82c-1 14 12 18 25 15v27c-30 8-71 5-69-32zm-48 3c29 0 43-24 42-57-32 0-66-3-65 30 0 17 8 27 23 27" id="at"/><path fill="#1d262b" d="M25-224v-37h50v37H25zM75 22c2 45-34 59-81 51V38c22 5 31-5 31-27v-201h50V22" id="au"/><g id="A"><use transform="matrix(0.08641975308641973,0,0,0.08641975308641973,0,0)" xlink:href="#aq"/><use transform="matrix(0.08641975308641973,0,0,0.08641975308641973,27.654320987654316,0)" xlink:href="#ar"/><use transform="matrix(0.08641975308641973,0,0,0.08641975308641973,44.938271604938265,0)" xlink:href="#as"/><use transform="matrix(0.08641975308641973,0,0,0.08641975308641973,63.864197530864196,0)" xlink:href="#ap"/><use transform="matrix(0.08641975308641973,0,0,0.08641975308641973,81.14814814814814,0)" xlink:href="#at"/><use transform="matrix(0.08641975308641973,0,0,0.08641975308641973,98.4320987654321,0)" xlink:href="#au"/><use transform="matrix(0.08641975308641973,0,0,0.08641975308641973,107.07407407407408,0)" xlink:href="#ar"/><use transform="matrix(0.08641975308641973,0,0,0.08641975308641973,124.35802469135801,0)" xlink:href="#ap"/></g><path fill="#1d262b" d="M135-194c53 0 70 44 70 98 0 56-19 98-73 100-31 1-45-17-59-34 3 33 2 69 2 105H25l-1-265h48c2 10 0 23 3 31 11-24 29-35 60-35zM114-30c33 0 39-31 40-66 0-38-9-64-40-64-56 0-55 130 0 130" id="av"/><path fill="#1d262b" d="M85 4C-2 5 27-109 22-190h50c7 57-23 150 33 157 60-5 35-97 40-157h50l1 190h-47c-2-12 1-28-3-38-12 25-28 42-61 42" id="aw"/><path fill="#1d262b" d="M88-194c31-1 46 15 58 34l-1-101h50l1 261h-48c-2-10 0-23-3-31C134-8 116 4 84 4 32 4 16-41 15-95c0-56 19-97 73-99zm17 164c33 0 40-30 41-66 1-37-9-64-41-64s-38 30-39 65c0 43 13 65 39 65" id="ax"/><g id="B"><use transform="matrix(0.08641975308641973,0,0,0.08641975308641973,0,0)" xlink:href="#av"/><use transform="matrix(0.08641975308641973,0,0,0.08641975308641973,18.92592592592592,0)" xlink:href="#aw"/><use transform="matrix(0.08641975308641973,0,0,0.08641975308641973,37.85185185185184,0)" xlink:href="#ar"/><use transform="matrix(0.08641975308641973,0,0,0.08641975308641973,55.13580246913578,0)" xlink:href="#ax"/><use transform="matrix(0.08641975308641973,0,0,0.08641975308641973,74.0617283950617,0)" xlink:href="#ar"/><use transform="matrix(0.08641975308641973,0,0,0.08641975308641973,91.34567901234566,0)" xlink:href="#as"/></g><path fill="#1d262b" d="M190-63c-7 42-38 67-86 67-59 0-84-38-90-98-12-110 154-137 174-36l-49 2c-2-19-15-32-35-32-30 0-35 28-38 64-6 74 65 87 74 30" id="ay"/><path fill="#1d262b" d="M135-194c52 0 70 43 70 98 0 56-19 99-73 100-30 1-46-15-58-35L72 0H24l1-261h50v104c11-23 29-37 60-37zM114-30c31 0 40-27 40-66 0-37-7-63-39-63s-41 28-41 65c0 36 8 64 40 64" id="az"/><path fill="#1d262b" d="M25-224v-37h50v37H25zM25 0v-190h50V0H25" id="aA"/><path fill="#1d262b" d="M135-150c-39-12-60 13-60 57V0H25l-1-190h47c2 13-1 29 3 40 6-28 27-53 61-41v41" id="aB"/><g id="C"><use transform="matrix(0.08641975308641973,0,0,0.08641975308641973,0,0)" xlink:href="#ay"/><use transform="matrix(0.08641975308641973,0,0,0.08641975308641973,17.283950617283946,0)" xlink:href="#at"/><use transform="matrix(0.08641975308641973,0,0,0.08641975308641973,34.56790123456789,0)" xlink:href="#aq"/><use transform="matrix(0.08641975308641973,0,0,0.08641975308641973,62.22222222222221,0)" xlink:href="#az"/><use transform="matrix(0.08641975308641973,0,0,0.08641975308641973,81.14814814814812,0)" xlink:href="#aA"/><use transform="matrix(0.08641975308641973,0,0,0.08641975308641973,89.7901234567901,0)" xlink:href="#at"/><use transform="matrix(0.08641975308641973,0,0,0.08641975308641973,107.07407407407405,0)" xlink:href="#aB"/></g><path fill="#1d262b" d="M185-189c-5-48-123-54-124 2 14 75 158 14 163 119 3 78-121 87-175 55-17-10-28-26-33-46l33-7c5 56 141 63 141-1 0-78-155-14-162-118-5-82 145-84 179-34 5 7 8 16 11 25" id="aC"/><g id="D"><use transform="matrix(0.06172839506172839,0,0,0.06172839506172839,0,0)" xlink:href="#aC"/><use transform="matrix(0.06172839506172839,0,0,0.06172839506172839,14.814814814814813,0)" xlink:href="#U"/></g><g id="E"><use transform="matrix(0.06172839506172839,0,0,0.06172839506172839,0,0)" xlink:href="#W"/><use transform="matrix(0.06172839506172839,0,0,0.06172839506172839,4.876543209876543,0)" xlink:href="#U"/><use transform="matrix(0.06172839506172839,0,0,0.06172839506172839,17.22222222222222,0)" xlink:href="#am"/></g><g id="F"><use transform="matrix(0.06172839506172839,0,0,0.06172839506172839,0,0)" xlink:href="#X"/><use transform="matrix(0.06172839506172839,0,0,0.06172839506172839,12.345679012345679,0)" xlink:href="#Y"/><use transform="matrix(0.06172839506172839,0,0,0.06172839506172839,24.691358024691358,0)" xlink:href="#U"/><use transform="matrix(0.06172839506172839,0,0,0.06172839506172839,37.03703703703704,0)" xlink:href="#V"/><use transform="matrix(0.06172839506172839,0,0,0.06172839506172839,49.382716049382715,0)" xlink:href="#U"/></g><path fill="#1d262b" d="M177-190C167-65 218 103 67 71c-23-6-38-20-44-43l32-5c15 47 100 32 89-28v-30C133-14 115 1 83 1 29 1 15-40 15-95c0-56 16-97 71-98 29-1 48 16 59 35 1-10 0-23 2-32h30zM94-22c36 0 50-32 50-73 0-42-14-75-50-75-39 0-46 34-46 75s6 73 46 73" id="aD"/><g id="G"><use transform="matrix(0.06172839506172839,0,0,0.06172839506172839,0,0)" xlink:href="#ad"/><use transform="matrix(0.06172839506172839,0,0,0.06172839506172839,12.345679012345679,0)" xlink:href="#aD"/><use transform="matrix(0.06172839506172839,0,0,0.06172839506172839,24.691358024691358,0)" xlink:href="#T"/><use transform="matrix(0.06172839506172839,0,0,0.06172839506172839,32.03703703703704,0)" xlink:href="#U"/><use transform="matrix(0.06172839506172839,0,0,0.06172839506172839,44.382716049382715,0)" xlink:href="#aD"/><use transform="matrix(0.06172839506172839,0,0,0.06172839506172839,56.72839506172839,0)" xlink:href="#ad"/><use transform="matrix(0.06172839506172839,0,0,0.06172839506172839,69.07407407407408,0)" xlink:href="#T"/></g><g id="H"><use transform="matrix(0.06172839506172839,0,0,0.06172839506172839,0,0)" xlink:href="#Y"/><use transform="matrix(0.06172839506172839,0,0,0.06172839506172839,12.345679012345679,0)" xlink:href="#K"/></g><path fill="#1d262b" d="M24-231v-30h32v30H24zM-9 49c24 4 33-6 33-30v-209h32V24c2 40-23 58-65 49V49" id="aE"/><g id="I"><use transform="matrix(0.06172839506172839,0,0,0.06172839506172839,0,0)" xlink:href="#R"/><use transform="matrix(0.06172839506172839,0,0,0.06172839506172839,18.456790123456788,0)" xlink:href="#U"/><use transform="matrix(0.06172839506172839,0,0,0.06172839506172839,30.80246913580247,0)" xlink:href="#K"/><use transform="matrix(0.06172839506172839,0,0,0.06172839506172839,43.148148148148145,0)" xlink:href="#am"/><use transform="matrix(0.06172839506172839,0,0,0.06172839506172839,54.25925925925925,0)" xlink:href="#ad"/><use transform="matrix(0.06172839506172839,0,0,0.06172839506172839,66.60493827160494,0)" xlink:href="#aE"/><use transform="matrix(0.06172839506172839,0,0,0.06172839506172839,71.48148148148148,0)" xlink:href="#U"/><use transform="matrix(0.06172839506172839,0,0,0.06172839506172839,83.82716049382717,0)" xlink:href="#ai"/></g></defs></g></svg>