<svg xmlns="http://www.w3.org/2000/svg" xmlns:xlink="http://www.w3.org/1999/xlink" xmlns:lucid="lucid" width="2340" height="2860"><g transform="translate(-55.00000000000003 -20)" lucid:page-tab-id="M54rM9e5qnyU"><path d="M318 40c17.67 0 32 17.9 32 40s-14.33 40-32 40h-96c-17.67 0-32-17.9-32-40s14.33-40 32-40z" stroke="#4881b3" stroke-width="3" fill="#f5fbff"/><use xlink:href="#a" transform="matrix(1,0,0,1,195,45) translate(49.1358024691358 39.65277777777778)"/><path d="M1358 2780c17.67 0 32 17.9 32 40s-14.33 40-32 40h-96c-17.67 0-32-17.9-32-40s14.33-40 32-40z" stroke="#4881b3" stroke-width="3" fill="#f5fbff"/><use xlink:href="#b" transform="matrix(1,0,0,1,1235,2785) translate(59.62962962962963 39.65277777777778)"/><path d="M186.8 193c2.87-1.66 7.9-3 11.2-3h176c14.36 0 26 13.43 26 30s-11.64 30-26 30H198c-3.3 0-8.33-1.34-11.2-3l-41.6-24c-2.87-1.66-2.87-4.34 0-6z" stroke="#4881b3" stroke-width="3" fill="#f5fbff"/><use xlink:href="#c" transform="matrix(1,0,0,1,145,195) translate(20.09141975308641 30.27777777777778)"/><use xlink:href="#d" transform="matrix(1,0,0,1,145,195) translate(112.93092592592592 30.27777777777778)"/><use xlink:href="#e" transform="matrix(1,0,0,1,145,195) translate(143.79512345679012 30.27777777777778)"/><use xlink:href="#f" transform="matrix(1,0,0,1,145,195) translate(167.1901851851852 30.27777777777778)"/><path d="M270 122.5V170" stroke="#224c72" stroke-width="2" fill="none"/><path d="M271 122.53h-2v-1.03h2" fill="#224c72"/><path d="M270 185.26L265.36 171h9.28z" stroke="#224c72" stroke-width="2" fill="#224c72"/><path d="M174.45 325.8c.86-3.2 4.24-5.8 7.55-5.8h192c3.3 0 5.3 2.6 4.45 5.8l-12.9 48.4c-.86 3.2-4.24 5.8-7.55 5.8H166c-3.3 0-5.3-2.6-4.45-5.8z" stroke="#4881b3" stroke-width="3" fill="#f5fbff"/><use xlink:href="#g" transform="matrix(1,0,0,1,165,325) translate(28.70253086419752 30.27777777777778)"/><use xlink:href="#h" transform="matrix(1,0,0,1,165,325) translate(82.96179012345678 30.27777777777778)"/><path d="M270.65 252.5V285h-.02v15" stroke="#224c72" stroke-width="2" fill="none"/><path d="M271.65 252.53h-2v-1.03h2" fill="#224c72"/><path d="M270.63 315.26L266 301h9.27z" stroke="#224c72" stroke-width="2" fill="#224c72"/><path d="M186.8 443c2.87-1.66 7.9-3 11.2-3h176c14.36 0 26 13.43 26 30s-11.64 30-26 30H198c-3.3 0-8.33-1.34-11.2-3l-41.6-24c-2.87-1.66-2.87-4.34 0-6z" stroke="#4881b3" stroke-width="3" fill="#f5fbff"/><use xlink:href="#i" transform="matrix(1,0,0,1,145,444.99999999999994) translate(93.98030864197531 30.27777777777778)"/><use xlink:href="#j" transform="matrix(1,0,0,1,145,444.99999999999994) translate(154.8445061728395 30.27777777777778)"/><path d="M270 382.5V420" stroke="#224c72" stroke-width="2" fill="none"/><path d="M271 382.53h-2v-1.03h2" fill="#224c72"/><path d="M270 435.26L265.36 421h9.28z" stroke="#224c72" stroke-width="2" fill="#224c72"/><path d="M174.45 565.8c.86-3.2 4.24-5.8 7.55-5.8h192c3.3 0 5.3 2.6 4.45 5.8l-12.9 48.4c-.86 3.2-4.24 5.8-7.55 5.8H166c-3.3 0-5.3-2.6-4.45-5.8z" stroke="#4881b3" stroke-width="3" fill="#f5fbff"/><use xlink:href="#g" transform="matrix(1,0,0,1,165,565) translate(37.86919753086419 30.27777777777778)"/><use xlink:href="#k" transform="matrix(1,0,0,1,165,565) translate(92.12845679012345 30.27777777777778)"/><path d="M271.15 502.5V540" stroke="#224c72" stroke-width="2" fill="none"/><path d="M272.15 502.53h-2v-1.03h2" fill="#224c72"/><path d="M271.15 555.26L266.5 541h9.28z" stroke="#224c72" stroke-width="2" fill="#224c72"/><path d="M186.8 683c2.87-1.66 7.9-3 11.2-3h176c14.36 0 26 13.43 26 30s-11.64 30-26 30H198c-3.3 0-8.33-1.34-11.2-3l-41.6-24c-2.87-1.66-2.87-4.34 0-6z" stroke="#4881b3" stroke-width="3" fill="#f5fbff"/><use xlink:href="#i" transform="matrix(1,0,0,1,145,685) translate(93.98030864197531 30.27777777777778)"/><use xlink:href="#l" transform="matrix(1,0,0,1,145,685) translate(154.8445061728395 30.27777777777778)"/><path d="M270 622.5V660" stroke="#224c72" stroke-width="2" fill="none"/><path d="M271 622.53h-2v-1.03h2" fill="#224c72"/><path d="M270 675.26L265.36 661h9.28z" stroke="#224c72" stroke-width="2" fill="#224c72"/><path d="M174.45 815.8c.86-3.2 4.24-5.8 7.55-5.8h192c3.3 0 5.3 2.6 4.45 5.8l-12.9 48.4c-.86 3.2-4.24 5.8-7.55 5.8H166c-3.3 0-5.3-2.6-4.45-5.8z" stroke="#4881b3" stroke-width="3" fill="#f5fbff"/><use xlink:href="#g" transform="matrix(1,0,0,1,165,815) translate(37.86919753086419 30.27777777777778)"/><use xlink:href="#m" transform="matrix(1,0,0,1,165,815) translate(92.12845679012345 30.27777777777778)"/><path d="M271.15 742.5V790" stroke="#224c72" stroke-width="2" fill="none"/><path d="M272.15 742.53h-2v-1.03h2" fill="#224c72"/><path d="M271.15 805.26L266.5 791h9.28z" stroke="#224c72" stroke-width="2" fill="#224c72"/><path d="M186.8 943c2.87-1.66 7.9-3 11.2-3h176c14.36 0 26 13.43 26 30s-11.64 30-26 30H198c-3.3 0-8.33-1.34-11.2-3l-41.6-24c-2.87-1.66-2.87-4.34 0-6z" stroke="#4881b3" stroke-width="3" fill="#f5fbff"/><use xlink:href="#i" transform="matrix(1,0,0,1,145,945) translate(93.98030864197531 30.27777777777778)"/><use xlink:href="#n" transform="matrix(1,0,0,1,145,945) translate(154.8445061728395 30.27777777777778)"/><path d="M174.45 1065.8c.86-3.2 4.24-5.8 7.55-5.8h192c3.3 0 5.3 2.6 4.45 5.8l-12.9 48.4c-.86 3.2-4.24 5.8-7.55 5.8H166c-3.3 0-5.3-2.6-4.45-5.8z" stroke="#4881b3" stroke-width="3" fill="#f5fbff"/><use xlink:href="#g" transform="matrix(1,0,0,1,165,1065) translate(37.86919753086419 30.27777777777778)"/><use xlink:href="#o" transform="matrix(1,0,0,1,165,1065) translate(92.12845679012345 30.27777777777778)"/><path d="M271.15 1002.5v37.5" stroke="#224c72" stroke-width="2" fill="none"/><path d="M272.15 1002.53h-2v-1.03h2" fill="#224c72"/><path d="M271.15 1055.26L266.5 1041h9.28z" stroke="#224c72" stroke-width="2" fill="#224c72"/><path d="M186.8 1183c2.87-1.66 7.9-3 11.2-3h176c14.36 0 26 13.43 26 30s-11.64 30-26 30H198c-3.3 0-8.33-1.34-11.2-3l-41.6-24c-2.87-1.66-2.87-4.34 0-6z" stroke="#4881b3" stroke-width="3" fill="#f5fbff"/><use xlink:href="#i" transform="matrix(1,0,0,1,145,1185) translate(93.98030864197531 30.27777777777778)"/><use xlink:href="#p" transform="matrix(1,0,0,1,145,1185) translate(154.8445061728395 30.27777777777778)"/><path d="M270 1122.5v37.5" stroke="#224c72" stroke-width="2" fill="none"/><path d="M271 1122.53h-2v-1.03h2" fill="#224c72"/><path d="M270 1175.26l-4.64-14.26h9.28z" stroke="#224c72" stroke-width="2" fill="#224c72"/><path d="M174.45 1315.8c.86-3.2 4.24-5.8 7.55-5.8h192c3.3 0 5.3 2.6 4.45 5.8l-12.9 48.4c-.86 3.2-4.24 5.8-7.55 5.8H166c-3.3 0-5.3-2.6-4.45-5.8z" stroke="#4881b3" stroke-width="3" fill="#f5fbff"/><use xlink:href="#g" transform="matrix(1,0,0,1,165,1315) translate(37.86919753086419 30.27777777777778)"/><use xlink:href="#q" transform="matrix(1,0,0,1,165,1315) translate(92.12845679012345 30.27777777777778)"/><path d="M271.15 1242.5v47.5" stroke="#224c72" stroke-width="2" fill="none"/><path d="M272.15 1242.53h-2v-1.03h2" fill="#224c72"/><path d="M271.15 1305.26L266.5 1291h9.28z" stroke="#224c72" stroke-width="2" fill="#224c72"/><path d="M270 872.5V920" stroke="#224c72" stroke-width="2" fill="none"/><path d="M271 872.53h-2v-1.03h2" fill="#224c72"/><path d="M270 935.26L265.36 921h9.28z" stroke="#224c72" stroke-width="2" fill="#224c72"/><path d="M100 1437.33c0-3.3 2.7-6 6-6h328c3.3 0 6 2.7 6 6v65.34c0 3.3-2.7 6-6 6H106c-3.3 0-6-2.7-6-6z" stroke="#4881b3" stroke-width="3" fill="#f5fbff"/><use xlink:href="#r" transform="matrix(1,0,0,1,112,1443.3333333333333) translate(5.253086419753117 17.77777777777778)"/><use xlink:href="#s" transform="matrix(1,0,0,1,112,1443.3333333333333) translate(89.141975308642 17.77777777777778)"/><use xlink:href="#t" transform="matrix(1,0,0,1,112,1443.3333333333333) translate(108.2777777777778 17.77777777777778)"/><use xlink:href="#u" transform="matrix(1,0,0,1,112,1443.3333333333333) translate(193.462962962963 17.77777777777778)"/><use xlink:href="#v" transform="matrix(1,0,0,1,112,1443.3333333333333) translate(212.5987654320988 17.77777777777778)"/><use xlink:href="#w" transform="matrix(1,0,0,1,112,1443.3333333333333) translate(297.78395061728395 17.77777777777778)"/><use xlink:href="#x" transform="matrix(1,0,0,1,112,1443.3333333333333) translate(66.33333333333333 44.44444444444444)"/><use xlink:href="#u" transform="matrix(1,0,0,1,112,1443.3333333333333) translate(151.51851851851853 44.44444444444444)"/><use xlink:href="#q" transform="matrix(1,0,0,1,112,1443.3333333333333) translate(170.65432098765433 44.44444444444444)"/><path d="M100 1571c0-3.3 2.7-6 6-6h328c3.3 0 6 2.7 6 6v48c0 3.3-2.7 6-6 6H106c-3.3 0-6-2.7-6-6z" stroke="#4881b3" stroke-width="3" fill="#f5fbff"/><use xlink:href="#y" transform="matrix(1,0,0,1,112,1577) translate(33.12345679012347 22.27777777777778)"/><use xlink:href="#s" transform="matrix(1,0,0,1,112,1577) translate(155.1604938271605 22.27777777777778)"/><use xlink:href="#z" transform="matrix(1,0,0,1,112,1577) translate(174.2962962962963 22.27777777777778)"/><use xlink:href="#A" transform="matrix(1,0,0,1,112,1577) translate(258.1851851851852 22.27777777777778)"/><use xlink:href="#B" transform="matrix(1,0,0,1,112,1577) translate(270.53086419753083 22.27777777777778)"/><path d="M270 1511.17V1545" stroke="#224c72" stroke-width="2" fill="none"/><path d="M271 1511.2h-2v-1.03h2" fill="#224c72"/><path d="M270 1560.26l-4.64-14.26h9.28z" stroke="#224c72" stroke-width="2" fill="#224c72"/><path d="M270 1372.5v38.83" stroke="#224c72" stroke-width="2" fill="none"/><path d="M271 1372.53h-2v-1.03h2" fill="#224c72"/><path d="M270 1426.6l-4.64-14.27h9.28z" stroke="#224c72" stroke-width="2" fill="#224c72"/><path d="M264.27 1721.76c3.16-.97 8.3-.97 11.46 0l183.54 56.48c3.16.97 3.16 2.55 0 3.52l-183.54 56.48c-3.16.97-8.3.97-11.46 0l-183.54-56.48c-3.16-.97-3.16-2.55 0-3.52z" stroke="#4881b3" stroke-width="3" fill="#f5fbff"/><use xlink:href="#C" transform="matrix(1,0,0,1,80.00000000000003,1725) translate(45.90499999999998 59.0875)"/><use xlink:href="#D" transform="matrix(1,0,0,1,80.00000000000003,1725) translate(144.755 59.0875)"/><use xlink:href="#E" transform="matrix(1,0,0,1,80.00000000000003,1725) translate(170.755 59.0875)"/><use xlink:href="#F" transform="matrix(1,0,0,1,80.00000000000003,1725) translate(185.755 59.0875)"/><use xlink:href="#G" transform="matrix(1,0,0,1,80.00000000000003,1725) translate(199.755 59.0875)"/><use xlink:href="#H" transform="matrix(1,0,0,1,80.00000000000003,1725) translate(298.605 59.0875)"/><use xlink:href="#I" transform="matrix(1,0,0,1,80.00000000000003,1725) translate(314.105 59.0875)"/><path d="M270 1627.5v73.62" stroke="#224c72" stroke-width="2" fill="none"/><path d="M271 1627.53h-2v-1.03h2" fill="#224c72"/><path d="M270 1716.4l-4.64-14.28h9.28z" stroke="#224c72" stroke-width="2" fill="#224c72"/><path d="M186.8 1938c2.87-1.66 7.9-3 11.2-3h176c14.36 0 26 13.43 26 30s-11.64 30-26 30H198c-3.3 0-8.33-1.34-11.2-3l-41.6-24c-2.87-1.66-2.87-4.34 0-6z" stroke="#4881b3" stroke-width="3" fill="#f5fbff"/><use xlink:href="#J" transform="matrix(1,0,0,1,145,1940) translate(62.56055555555555 30.27777777777778)"/><use xlink:href="#K" transform="matrix(1,0,0,1,145,1940) translate(134.53586419753086 30.27777777777778)"/><path d="M271 1915h-2v-17.26h2m0-21.6h-2v-34.77h2" fill="#224c72"/><path d="M271 1840.46v.94h-2v-1.1M270 1930.26l-4.64-14.26h9.28z" fill="#224c72"/><path d="M270 1933.5l-6-18.5h12m-9.26 2l3.26 10.03 3.26-10.03" fill="#224c72"/><use xlink:href="#L" transform="matrix(1,0,0,1,261.5,1876.1373960129179) translate(0 14.4)"/><path d="M174.45 2065.8c.86-3.2 4.24-5.8 7.55-5.8h192c3.3 0 5.3 2.6 4.45 5.8l-12.9 48.4c-.86 3.2-4.24 5.8-7.55 5.8H166c-3.3 0-5.3-2.6-4.45-5.8z" stroke="#4881b3" stroke-width="3" fill="#f5fbff"/><use xlink:href="#M" transform="matrix(1,0,0,1,165,2065) translate(21.881543209876533 30.27777777777778)"/><use xlink:href="#h" transform="matrix(1,0,0,1,165,2065) translate(89.78277777777777 30.27777777777778)"/><path d="M271.15 1997.5v42.5" stroke="#224c72" stroke-width="2" fill="none"/><path d="M272.15 1997.53h-2v-1.03h2" fill="#224c72"/><path d="M271.15 2055.26L266.5 2041h9.28z" stroke="#224c72" stroke-width="2" fill="#224c72"/><path d="M889.23 1841.65c3.2-.9 8.35-.9 11.54 0l198.46 56.7c3.2.9 3.2 2.4 0 3.3l-198.46 56.7c-3.2.9-8.35.9-11.54 0l-198.46-56.7c-3.2-.9-3.2-2.4 0-3.3z" stroke="#4881b3" stroke-width="3" fill="#f5fbff"/><use xlink:href="#C" transform="matrix(1,0,0,1,690,1845) translate(50.65499999999998 59.0875)"/><use xlink:href="#D" transform="matrix(1,0,0,1,690,1845) translate(149.505 59.0875)"/><use xlink:href="#N" transform="matrix(1,0,0,1,690,1845) translate(175.505 59.0875)"/><use xlink:href="#F" transform="matrix(1,0,0,1,690,1845) translate(200.505 59.0875)"/><use xlink:href="#G" transform="matrix(1,0,0,1,690,1845) translate(214.505 59.0875)"/><use xlink:href="#O" transform="matrix(1,0,0,1,690,1845) translate(313.355 59.0875)"/><use xlink:href="#P" transform="matrix(1,0,0,1,690,1845) translate(339.355 59.0875)"/><path d="M811.8 2058c2.87-1.66 7.9-3 11.2-3h176c14.36 0 26 13.43 26 30s-11.64 30-26 30H823c-3.3 0-8.33-1.34-11.2-3l-41.6-24c-2.87-1.66-2.87-4.34 0-6z" stroke="#4881b3" stroke-width="3" fill="#f5fbff"/><use xlink:href="#J" transform="matrix(1,0,0,1,770,2060) translate(21.202530864197524 30.27777777777778)"/><use xlink:href="#Q" transform="matrix(1,0,0,1,770,2060) translate(93.17783950617283 30.27777777777778)"/><use xlink:href="#R" transform="matrix(1,0,0,1,770,2060) translate(148.7333950617284 30.27777777777778)"/><path d="M896 2035h-2v-17.2h2m0-21.6h-2v-34.7h2" fill="#224c72"/><path d="M895.5 1960.54l.5-.06v1.04h-2v-1.13M895 2050.26l-4.64-14.26h9.28z" fill="#224c72"/><path d="M895 2053.5l-6-18.5h12m-9.26 2l3.26 10.03 3.26-10.03" fill="#224c72"/><use xlink:href="#L" transform="matrix(1,0,0,1,886.5,1996.1956898973829) translate(0 14.4)"/><path d="M799.45 2185.8c.86-3.2 4.24-5.8 7.55-5.8h192c3.3 0 5.3 2.6 4.45 5.8l-12.9 48.4c-.86 3.2-4.24 5.8-7.55 5.8H791c-3.3 0-5.3-2.6-4.45-5.8z" stroke="#4881b3" stroke-width="3" fill="#f5fbff"/><use xlink:href="#M" transform="matrix(1,0,0,1,790,2185) translate(21.881543209876533 30.27777777777778)"/><use xlink:href="#h" transform="matrix(1,0,0,1,790,2185) translate(89.78277777777777 30.27777777777778)"/><path d="M896.15 2117.5v42.5" stroke="#224c72" stroke-width="2" fill="none"/><path d="M897.15 2117.53h-2v-1.03h2" fill="#224c72"/><path d="M896.15 2175.26L891.5 2161h9.28z" stroke="#224c72" stroke-width="2" fill="#224c72"/><path d="M892.55 1779.92l2.53 2.53.92 3.42V1821h-2v-34.87l-.7-2.64-1.8-1.8-2.63-.7H720.8v-2h168.33m-423.97 2v-2h232.7v2" fill="#224c72"/><path d="M465.18 1781h-2.37l1.36-1-1.35-1h2.38M895 1836.27l-4.64-14.26h9.28z" fill="#224c72"/><path d="M895 1839.5l-6-18.5h12m-9.26 2l3.26 10.04 3.26-10.03" fill="#224c72"/><use xlink:href="#S" transform="matrix(1,0,0,1,697.8573929860754,1769.2) translate(0 14.4)"/><path d="M1514.27 1961.76c3.16-.97 8.3-.97 11.46 0l183.54 56.48c3.16.97 3.16 2.55 0 3.52l-183.54 56.48c-3.16.97-8.3.97-11.46 0l-183.54-56.48c-3.16-.97-3.16-2.55 0-3.52z" stroke="#4881b3" stroke-width="3" fill="#f5fbff"/><use xlink:href="#C" transform="matrix(1,0,0,1,1330,1965) translate(46.15499999999998 59.0875)"/><use xlink:href="#T" transform="matrix(1,0,0,1,1330,1965) translate(145.005 59.0875)"/><use xlink:href="#U" transform="matrix(1,0,0,1,1330,1965) translate(160.505 59.0875)"/><use xlink:href="#F" transform="matrix(1,0,0,1,1330,1965) translate(185.505 59.0875)"/><use xlink:href="#G" transform="matrix(1,0,0,1,1330,1965) translate(199.505 59.0875)"/><use xlink:href="#H" transform="matrix(1,0,0,1,1330,1965) translate(298.355 59.0875)"/><use xlink:href="#V" transform="matrix(1,0,0,1,1330,1965) translate(313.855 59.0875)"/><path d="M1436.8 2163c2.87-1.66 7.9-3 11.2-3h176c14.36 0 26 13.43 26 30s-11.64 30-26 30h-176c-3.3 0-8.33-1.34-11.2-3l-41.6-24c-2.87-1.66-2.87-4.34 0-6z" stroke="#4881b3" stroke-width="3" fill="#f5fbff"/><use xlink:href="#W" transform="matrix(1,0,0,1,1395,2165) translate(24.19635802469136 30.27777777777778)"/><use xlink:href="#X" transform="matrix(1,0,0,1,1395,2165) translate(65.3691975308642 30.27777777777778)"/><use xlink:href="#Y" transform="matrix(1,0,0,1,1395,2165) translate(114.75191358024692 30.27777777777778)"/><use xlink:href="#Z" transform="matrix(1,0,0,1,1395,2165) translate(144.38154320987655 30.27777777777778)"/><use xlink:href="#aa" transform="matrix(1,0,0,1,1395,2165) translate(212.28277777777777 30.27777777777778)"/><path d="M1521 2140h-2v-9.76h2m0-21.6h-2v-27.27h2" fill="#224c72"/><path d="M1521 2080.46v.94h-2v-1.1M1520 2155.26l-4.64-14.26h9.28z" fill="#224c72"/><path d="M1520 2158.5l-6-18.5h12m-9.26 2l3.26 10.03 3.26-10.03" fill="#224c72"/><use xlink:href="#L" transform="matrix(1,0,0,1,1511.5,2108.6373960129176) translate(0 14.4)"/><path d="M1424.45 2285.8c.86-3.2 4.24-5.8 7.55-5.8h192c3.3 0 5.3 2.6 4.45 5.8l-12.9 48.4c-.86 3.2-4.24 5.8-7.55 5.8h-192c-3.3 0-5.3-2.6-4.45-5.8z" stroke="#4881b3" stroke-width="3" fill="#f5fbff"/><use xlink:href="#M" transform="matrix(1,0,0,1,1415,2285) translate(21.881543209876533 30.27777777777778)"/><use xlink:href="#h" transform="matrix(1,0,0,1,1415,2285) translate(89.78277777777777 30.27777777777778)"/><path d="M1521.15 2222.5v37.5" stroke="#224c72" stroke-width="2" fill="none"/><path d="M1522.15 2222.53h-2v-1.03h2" fill="#224c72"/><path d="M1521.15 2275.26l-4.64-14.26h9.28z" stroke="#224c72" stroke-width="2" fill="#224c72"/><path d="M1517.55 1899.92l2.53 2.53.92 3.42v35.25h-2v-35l-.7-2.63-1.8-1.8-2.63-.7h-160.45v-2h160.7m-408.86 2v-2h225.2v2" fill="#224c72"/><path d="M1105.3 1901h-2.5l1.46-1-1.45-1h2.5M1520 1956.4l-4.64-14.28h9.28z" fill="#224c72"/><path d="M1520 1959.63l-6-18.5h12m-9.26 2l3.26 10.02 3.26-10.03" fill="#224c72"/><use xlink:href="#S" transform="matrix(1,0,0,1,1330.4687487367614,1889.2) translate(0 14.4)"/><path d="M2149.2 2081.58c3.2-.87 8.4-.87 11.6 0l208.4 56.84c3.2.87 3.2 2.3 0 3.16l-208.4 56.84c-3.2.87-8.4.87-11.6 0l-208.4-56.84c-3.2-.87-3.2-2.3 0-3.16z" stroke="#4881b3" stroke-width="3" fill="#f5fbff"/><g><use xlink:href="#C" transform="matrix(1,0,0,1,1940,2085) translate(55.65499999999998 59.0875)"/><use xlink:href="#D" transform="matrix(1,0,0,1,1940,2085) translate(154.505 59.0875)"/><use xlink:href="#ab" transform="matrix(1,0,0,1,1940,2085) translate(180.505 59.0875)"/><use xlink:href="#F" transform="matrix(1,0,0,1,1940,2085) translate(205.505 59.0875)"/><use xlink:href="#G" transform="matrix(1,0,0,1,1940,2085) translate(219.505 59.0875)"/><use xlink:href="#O" transform="matrix(1,0,0,1,1940,2085) translate(318.355 59.0875)"/><use xlink:href="#ac" transform="matrix(1,0,0,1,1940,2085) translate(344.355 59.0875)"/></g><path d="M2071.8 2298c2.87-1.66 7.9-3 11.2-3h176c14.36 0 26 13.43 26 30s-11.64 30-26 30h-176c-3.3 0-8.33-1.34-11.2-3l-41.6-24c-2.87-1.66-2.87-4.34 0-6z" stroke="#4881b3" stroke-width="3" fill="#f5fbff"/><g><use xlink:href="#ad" transform="matrix(1,0,0,1,2030,2300) translate(31.63462962962964 30.27777777777778)"/><use xlink:href="#Z" transform="matrix(1,0,0,1,2030,2300) translate(87.56055555555557 30.27777777777778)"/><use xlink:href="#X" transform="matrix(1,0,0,1,2030,2300) translate(155.4617901234568 30.27777777777778)"/><use xlink:href="#aa" transform="matrix(1,0,0,1,2030,2300) translate(204.8445061728395 30.27777777777778)"/></g><path d="M2156 2275h-2v-17.17h2m0-21.6h-2v-34.66h2" fill="#224c72"/><path d="M2155.14 2200.58l.86-.1v1.1h-2v-1.12M2155 2290.26l-4.64-14.26h9.28z" fill="#224c72"/><path d="M2155 2293.5l-6-18.5h12m-9.26 2l3.26 10.03 3.26-10.03" fill="#224c72"/><g><use xlink:href="#L" transform="matrix(1,0,0,1,2146.5,2236.234565376194) translate(0 14.4)"/></g><path d="M2059.45 2425.8c.86-3.2 4.24-5.8 7.55-5.8h192c3.3 0 5.3 2.6 4.45 5.8l-12.9 48.4c-.86 3.2-4.24 5.8-7.55 5.8h-192c-3.3 0-5.3-2.6-4.45-5.8z" stroke="#4881b3" stroke-width="3" fill="#f5fbff"/><g><use xlink:href="#M" transform="matrix(1,0,0,1,2050,2425) translate(21.881543209876533 30.27777777777778)"/><use xlink:href="#h" transform="matrix(1,0,0,1,2050,2425) translate(89.78277777777777 30.27777777777778)"/></g><path d="M2156.15 2357.5v42.5" stroke="#224c72" stroke-width="2" fill="none"/><path d="M2157.15 2357.53h-2v-1.03h2" fill="#224c72"/><path d="M2156.15 2415.26l-4.64-14.26h9.28z" stroke="#224c72" stroke-width="2" fill="#224c72"/><path d="M2152.55 2019.92l2.53 2.53.92 3.42v35.06h-2v-34.8l-.7-2.64-1.8-1.8-2.63-.7h-173.1v-2h173.36m-433.97 2v-2h237.66v2" fill="#224c72"/><path d="M1715.18 2021h-2.37l1.36-1-1.35-1h2.38M2155 2076.2l-4.64-14.27h9.28z" fill="#224c72"/><path d="M2155 2079.43l-6-18.5h12m-9.26 2l3.26 10.03 3.26-10.03" fill="#224c72"/><g><use xlink:href="#S" transform="matrix(1,0,0,1,1952.8185175072642,2009.2) translate(0 14.4)"/></g><path d="M270 2247.5V2724c0 3.3 2.7 6 6 6h1028c3.3 0 6 2.7 6 6v24" stroke="#224c72" stroke-width="2" fill="none"/><path d="M271 2247.53h-2v-1.03h2" fill="#224c72"/><path d="M1310 2775.26l-4.64-14.26h9.28z" stroke="#224c72" stroke-width="2" fill="#224c72"/><path d="M270 2122.5v42.5" stroke="#224c72" stroke-width="2" fill="none"/><path d="M271 2122.53h-2v-1.03h2" fill="#224c72"/><path d="M270 2180.26l-4.64-14.26h9.28z" stroke="#224c72" stroke-width="2" fill="#224c72"/><path d="M895 2367.5V2724c0 3.3 2.7 6 6 6h403c3.3 0 6 2.7 6 6v24" stroke="#224c72" stroke-width="2" fill="none"/><path d="M896 2367.53h-2v-1.03h2" fill="#224c72"/><path d="M1310 2775.26l-4.64-14.26h9.28z" stroke="#224c72" stroke-width="2" fill="#224c72"/><path d="M895 2242.5v42.5" stroke="#224c72" stroke-width="2" fill="none"/><path d="M896 2242.53h-2v-1.03h2" fill="#224c72"/><path d="M895 2300.26l-4.64-14.26h9.28z" stroke="#224c72" stroke-width="2" fill="#224c72"/><path d="M1520 2462.5V2724c0 3.3-2.7 6-6 6h-198c-3.3 0-6 2.7-6 6v24" stroke="#224c72" stroke-width="2" fill="none"/><path d="M1521 2462.53h-2v-1.03h2" fill="#224c72"/><path d="M1310 2775.26l-4.64-14.26h9.28z" stroke="#224c72" stroke-width="2" fill="#224c72"/><path d="M1520 2342.5v37.5" stroke="#224c72" stroke-width="2" fill="none"/><path d="M1521 2342.53h-2v-1.03h2" fill="#224c72"/><path d="M1520 2395.26l-4.64-14.26h9.28z" stroke="#224c72" stroke-width="2" fill="#224c72"/><path d="M2155 2607.5V2724c0 3.3-2.7 6-6 6h-833c-3.3 0-6 2.7-6 6v24" stroke="#224c72" stroke-width="2" fill="none"/><path d="M2156 2607.53h-2v-1.03h2" fill="#224c72"/><path d="M1310 2775.26l-4.64-14.26h9.28z" stroke="#224c72" stroke-width="2" fill="#224c72"/><path d="M2155 2482.5v42.5" stroke="#224c72" stroke-width="2" fill="none"/><path d="M2156 2482.53h-2v-1.03h2" fill="#224c72"/><path d="M2155 2540.26l-4.64-14.26h9.28z" stroke="#224c72" stroke-width="2" fill="#224c72"/><path d="M174.45 2190.8c.86-3.2 4.24-5.8 7.55-5.8h192c3.3 0 5.3 2.6 4.45 5.8l-12.9 48.4c-.86 3.2-4.24 5.8-7.55 5.8H166c-3.3 0-5.3-2.6-4.45-5.8z" stroke="#4881b3" stroke-width="3" fill="#f5fbff"/><g><use xlink:href="#M" transform="matrix(1,0,0,1,165,2190) translate(12.622283950617282 30.27777777777778)"/><use xlink:href="#ae" transform="matrix(1,0,0,1,165,2190) translate(80.52351851851851 30.27777777777778)"/></g><path d="M799.45 2310.8c.86-3.2 4.24-5.8 7.55-5.8h192c3.3 0 5.3 2.6 4.45 5.8l-12.9 48.4c-.86 3.2-4.24 5.8-7.55 5.8H791c-3.3 0-5.3-2.6-4.45-5.8z" stroke="#4881b3" stroke-width="3" fill="#f5fbff"/><g><use xlink:href="#M" transform="matrix(1,0,0,1,790,2310) translate(12.622283950617282 30.27777777777778)"/><use xlink:href="#ae" transform="matrix(1,0,0,1,790,2310) translate(80.52351851851851 30.27777777777778)"/></g><path d="M1424.45 2405.8c.86-3.2 4.24-5.8 7.55-5.8h192c3.3 0 5.3 2.6 4.45 5.8l-12.9 48.4c-.86 3.2-4.24 5.8-7.55 5.8h-192c-3.3 0-5.3-2.6-4.45-5.8z" stroke="#4881b3" stroke-width="3" fill="#f5fbff"/><g><use xlink:href="#M" transform="matrix(1,0,0,1,1415,2405) translate(12.622283950617282 30.27777777777778)"/><use xlink:href="#ae" transform="matrix(1,0,0,1,1415,2405) translate(80.52351851851851 30.27777777777778)"/></g><path d="M2059.45 2550.8c.86-3.2 4.24-5.8 7.55-5.8h192c3.3 0 5.3 2.6 4.45 5.8l-12.9 48.4c-.86 3.2-4.24 5.8-7.55 5.8h-192c-3.3 0-5.3-2.6-4.45-5.8z" stroke="#4881b3" stroke-width="3" fill="#f5fbff"/><g><use xlink:href="#M" transform="matrix(1,0,0,1,2050,2550) translate(12.622283950617282 30.27777777777778)"/><use xlink:href="#ae" transform="matrix(1,0,0,1,2050,2550) translate(80.52351851851851 30.27777777777778)"/></g><defs><path fill="#1d262b" d="M33 0v-248h34V0H33" id="af"/><path fill="#1d262b" d="M117-194c89-4 53 116 60 194h-32v-121c0-31-8-49-39-48C34-167 62-67 57 0H25l-1-190h30c1 10-1 24 2 32 11-22 29-35 61-36" id="ag"/><path fill="#1d262b" d="M24-231v-30h32v30H24zM24 0v-190h32V0H24" id="ah"/><path fill="#1d262b" d="M96-169c-40 0-48 33-48 73s9 75 48 75c24 0 41-14 43-38l32 2c-6 37-31 61-74 61-59 0-76-41-82-99-10-93 101-131 147-64 4 7 5 14 7 22l-32 3c-4-21-16-35-41-35" id="ai"/><path fill="#1d262b" d="M100-194c62-1 85 37 85 99 1 63-27 99-86 99S16-35 15-95c0-66 28-99 85-99zM99-20c44 1 53-31 53-75 0-43-8-75-51-75s-53 32-53 75 10 74 51 75" id="aj"/><g id="a"><use transform="matrix(0.06172839506172839,0,0,0.06172839506172839,0,0)" xlink:href="#af"/><use transform="matrix(0.06172839506172839,0,0,0.06172839506172839,6.172839506172839,0)" xlink:href="#ag"/><use transform="matrix(0.06172839506172839,0,0,0.06172839506172839,18.51851851851852,0)" xlink:href="#ah"/><use transform="matrix(0.06172839506172839,0,0,0.06172839506172839,23.395061728395063,0)" xlink:href="#ai"/><use transform="matrix(0.06172839506172839,0,0,0.06172839506172839,34.50617283950618,0)" xlink:href="#ah"/><use transform="matrix(0.06172839506172839,0,0,0.06172839506172839,39.38271604938272,0)" xlink:href="#aj"/></g><path fill="#1d262b" d="M63-220v92h138v28H63V0H30v-248h175v28H63" id="ak"/><g id="b"><use transform="matrix(0.06172839506172839,0,0,0.06172839506172839,0,0)" xlink:href="#ak"/><use transform="matrix(0.06172839506172839,0,0,0.06172839506172839,13.518518518518517,0)" xlink:href="#ah"/><use transform="matrix(0.06172839506172839,0,0,0.06172839506172839,18.39506172839506,0)" xlink:href="#ag"/></g><path fill="#1d262b" d="M109-170H84l-4-78h32zm-65 0H19l-4-78h33" id="al"/><path fill="#1d262b" d="M190 0L58-211 59 0H30v-248h39L202-35l-2-213h31V0h-41" id="am"/><path fill="#1d262b" d="M210-169c-67 3-38 105-44 169h-31v-121c0-29-5-50-35-48C34-165 62-65 56 0H25l-1-190h30c1 10-1 24 2 32 10-44 99-50 107 0 11-21 27-35 58-36 85-2 47 119 55 194h-31v-121c0-29-5-49-35-48" id="an"/><path fill="#1d262b" d="M115-194c53 0 69 39 70 98 0 66-23 100-70 100C84 3 66-7 56-30L54 0H23l1-261h32v101c10-23 28-34 59-34zm-8 174c40 0 45-34 45-75 0-40-5-75-45-74-42 0-51 32-51 76 0 43 10 73 51 73" id="ao"/><path fill="#1d262b" d="M114-163C36-179 61-72 57 0H25l-1-190h30c1 12-1 29 2 39 6-27 23-49 58-41v29" id="ap"/><path fill="#1d262b" d="M100-194c63 0 86 42 84 106H49c0 40 14 67 53 68 26 1 43-12 49-29l28 8c-11 28-37 45-77 45C44 4 14-33 15-96c1-61 26-98 85-98zm52 81c6-60-76-77-97-28-3 7-6 17-6 28h103" id="aq"/><g id="c"><use transform="matrix(0.06172839506172839,0,0,0.06172839506172839,0,0)" xlink:href="#al"/><use transform="matrix(0.06172839506172839,0,0,0.06172839506172839,7.8395061728395055,0)" xlink:href="#am"/><use transform="matrix(0.06172839506172839,0,0,0.06172839506172839,23.827160493827158,0)" xlink:href="#aj"/><use transform="matrix(0.06172839506172839,0,0,0.06172839506172839,36.172839506172835,0)" xlink:href="#an"/><use transform="matrix(0.06172839506172839,0,0,0.06172839506172839,54.62962962962962,0)" xlink:href="#ao"/><use transform="matrix(0.06172839506172839,0,0,0.06172839506172839,66.9753086419753,0)" xlink:href="#ap"/><use transform="matrix(0.06172839506172839,0,0,0.06172839506172839,74.32098765432099,0)" xlink:href="#aq"/></g><path fill="#1d262b" d="M85-194c31 0 48 13 60 33l-1-100h32l1 261h-30c-2-10 0-23-3-31C134-8 116 4 85 4 32 4 16-35 15-94c0-66 23-100 70-100zm9 24c-40 0-46 34-46 75 0 40 6 74 45 74 42 0 51-32 51-76 0-42-9-74-50-73" id="ar"/><g id="d"><use transform="matrix(0.06172839506172839,0,0,0.06172839506172839,0,0)" xlink:href="#ar"/><use transform="matrix(0.06172839506172839,0,0,0.06172839506172839,12.345679012345679,0)" xlink:href="#aq"/></g><path fill="#1d262b" d="M24 0v-261h32V0H24" id="as"/><path fill="#1d262b" d="M141-36C126-15 110 5 73 4 37 3 15-17 15-53c-1-64 63-63 125-63 3-35-9-54-41-54-24 1-41 7-42 31l-33-3c5-37 33-52 76-52 45 0 72 20 72 64v82c-1 20 7 32 28 27v20c-31 9-61-2-59-35zM48-53c0 20 12 33 32 33 41-3 63-29 60-74-43 2-92-5-92 41" id="at"/><g id="e"><use transform="matrix(0.06172839506172839,0,0,0.06172839506172839,0,0)" xlink:href="#as"/><use transform="matrix(0.06172839506172839,0,0,0.06172839506172839,4.876543209876543,0)" xlink:href="#at"/></g><path fill="#1d262b" d="M59-47c-2 24 18 29 38 22v24C64 9 27 4 27-40v-127H5v-23h24l9-43h21v43h35v23H59v120" id="au"/><g id="f"><use transform="matrix(0.06172839506172839,0,0,0.06172839506172839,0,0)" xlink:href="#an"/><use transform="matrix(0.06172839506172839,0,0,0.06172839506172839,18.456790123456788,0)" xlink:href="#at"/><use transform="matrix(0.06172839506172839,0,0,0.06172839506172839,30.80246913580247,0)" xlink:href="#au"/><use transform="matrix(0.06172839506172839,0,0,0.06172839506172839,36.97530864197531,0)" xlink:href="#aq"/><use transform="matrix(0.06172839506172839,0,0,0.06172839506172839,49.32098765432099,0)" xlink:href="#ap"/><use transform="matrix(0.06172839506172839,0,0,0.06172839506172839,56.666666666666664,0)" xlink:href="#ah"/><use transform="matrix(0.06172839506172839,0,0,0.06172839506172839,61.54320987654321,0)" xlink:href="#at"/><use transform="matrix(0.06172839506172839,0,0,0.06172839506172839,73.88888888888889,0)" xlink:href="#al"/></g><path fill="#1d262b" d="M115-194c55 1 70 41 70 98S169 2 115 4C84 4 66-9 55-30l1 105H24l-1-265h31l2 30c10-21 28-34 59-34zm-8 174c40 0 45-34 45-75s-6-73-45-74c-42 0-51 32-51 76 0 43 10 73 51 73" id="av"/><path fill="#1d262b" d="M84 4C-5 8 30-112 23-190h32v120c0 31 7 50 39 49 72-2 45-101 50-169h31l1 190h-30c-1-10 1-25-2-33-11 22-28 36-60 37" id="aw"/><g id="g"><use transform="matrix(0.06172839506172839,0,0,0.06172839506172839,0,0)" xlink:href="#ah"/><use transform="matrix(0.06172839506172839,0,0,0.06172839506172839,4.876543209876543,0)" xlink:href="#ag"/><use transform="matrix(0.06172839506172839,0,0,0.06172839506172839,17.22222222222222,0)" xlink:href="#av"/><use transform="matrix(0.06172839506172839,0,0,0.06172839506172839,29.5679012345679,0)" xlink:href="#aw"/><use transform="matrix(0.06172839506172839,0,0,0.06172839506172839,41.913580246913575,0)" xlink:href="#au"/></g><path fill="#1d262b" d="M108 0H70L1-190h34L89-25l56-165h34" id="ax"/><path fill="#1d262b" d="M-5 72V49h209v23H-5" id="ay"/><g id="h"><use transform="matrix(0.06172839506172839,0,0,0.06172839506172839,0,0)" xlink:href="#ax"/><use transform="matrix(0.06172839506172839,0,0,0.06172839506172839,11.11111111111111,0)" xlink:href="#ay"/><use transform="matrix(0.06172839506172839,0,0,0.06172839506172839,23.45679012345679,0)" xlink:href="#an"/><use transform="matrix(0.06172839506172839,0,0,0.06172839506172839,41.91358024691358,0)" xlink:href="#at"/><use transform="matrix(0.06172839506172839,0,0,0.06172839506172839,54.25925925925926,0)" xlink:href="#au"/><use transform="matrix(0.06172839506172839,0,0,0.06172839506172839,60.4320987654321,0)" xlink:href="#aq"/><use transform="matrix(0.06172839506172839,0,0,0.06172839506172839,72.77777777777779,0)" xlink:href="#ap"/><use transform="matrix(0.06172839506172839,0,0,0.06172839506172839,80.12345679012347,0)" xlink:href="#ah"/><use transform="matrix(0.06172839506172839,0,0,0.06172839506172839,85.00000000000001,0)" xlink:href="#at"/></g><g id="i"><use transform="matrix(0.06172839506172839,0,0,0.06172839506172839,0,0)" xlink:href="#al"/><use transform="matrix(0.06172839506172839,0,0,0.06172839506172839,7.8395061728395055,0)" xlink:href="#am"/><use transform="matrix(0.06172839506172839,0,0,0.06172839506172839,23.827160493827158,0)" xlink:href="#aj"/><use transform="matrix(0.06172839506172839,0,0,0.06172839506172839,36.172839506172835,0)" xlink:href="#au"/><use transform="matrix(0.06172839506172839,0,0,0.06172839506172839,42.34567901234568,0)" xlink:href="#at"/></g><path fill="#1d262b" d="M27 0v-27h64v-190l-56 39v-29l58-41h29v221h61V0H27" id="az"/><g id="j"><use transform="matrix(0.06172839506172839,0,0,0.06172839506172839,0,0)" xlink:href="#az"/><use transform="matrix(0.06172839506172839,0,0,0.06172839506172839,12.345679012345679,0)" xlink:href="#al"/></g><g id="k"><use transform="matrix(0.06172839506172839,0,0,0.06172839506172839,0,0)" xlink:href="#ax"/><use transform="matrix(0.06172839506172839,0,0,0.06172839506172839,11.11111111111111,0)" xlink:href="#ay"/><use transform="matrix(0.06172839506172839,0,0,0.06172839506172839,23.45679012345679,0)" xlink:href="#ag"/><use transform="matrix(0.06172839506172839,0,0,0.06172839506172839,35.80246913580247,0)" xlink:href="#aj"/><use transform="matrix(0.06172839506172839,0,0,0.06172839506172839,48.148148148148145,0)" xlink:href="#au"/><use transform="matrix(0.06172839506172839,0,0,0.06172839506172839,54.32098765432099,0)" xlink:href="#at"/><use transform="matrix(0.06172839506172839,0,0,0.06172839506172839,66.66666666666667,0)" xlink:href="#az"/></g><path fill="#1d262b" d="M101-251c82-7 93 87 43 132L82-64C71-53 59-42 53-27h129V0H18c2-99 128-94 128-182 0-28-16-43-45-43s-46 15-49 41l-32-3c6-41 34-60 81-64" id="aA"/><g id="l"><use transform="matrix(0.06172839506172839,0,0,0.06172839506172839,0,0)" xlink:href="#aA"/><use transform="matrix(0.06172839506172839,0,0,0.06172839506172839,12.345679012345679,0)" xlink:href="#al"/></g><g id="m"><use transform="matrix(0.06172839506172839,0,0,0.06172839506172839,0,0)" xlink:href="#ax"/><use transform="matrix(0.06172839506172839,0,0,0.06172839506172839,11.11111111111111,0)" xlink:href="#ay"/><use transform="matrix(0.06172839506172839,0,0,0.06172839506172839,23.45679012345679,0)" xlink:href="#ag"/><use transform="matrix(0.06172839506172839,0,0,0.06172839506172839,35.80246913580247,0)" xlink:href="#aj"/><use transform="matrix(0.06172839506172839,0,0,0.06172839506172839,48.148148148148145,0)" xlink:href="#au"/><use transform="matrix(0.06172839506172839,0,0,0.06172839506172839,54.32098765432099,0)" xlink:href="#at"/><use transform="matrix(0.06172839506172839,0,0,0.06172839506172839,66.66666666666667,0)" xlink:href="#aA"/></g><path fill="#1d262b" d="M126-127c33 6 58 20 58 59 0 88-139 92-164 29-3-8-5-16-6-25l32-3c6 27 21 44 54 44 32 0 52-15 52-46 0-38-36-46-79-43v-28c39 1 72-4 72-42 0-27-17-43-46-43-28 0-47 15-49 41l-32-3c6-42 35-63 81-64 48-1 79 21 79 65 0 36-21 52-52 59" id="aB"/><g id="n"><use transform="matrix(0.06172839506172839,0,0,0.06172839506172839,0,0)" xlink:href="#aB"/><use transform="matrix(0.06172839506172839,0,0,0.06172839506172839,12.345679012345679,0)" xlink:href="#al"/></g><g id="o"><use transform="matrix(0.06172839506172839,0,0,0.06172839506172839,0,0)" xlink:href="#ax"/><use transform="matrix(0.06172839506172839,0,0,0.06172839506172839,11.11111111111111,0)" xlink:href="#ay"/><use transform="matrix(0.06172839506172839,0,0,0.06172839506172839,23.45679012345679,0)" xlink:href="#ag"/><use transform="matrix(0.06172839506172839,0,0,0.06172839506172839,35.80246913580247,0)" xlink:href="#aj"/><use transform="matrix(0.06172839506172839,0,0,0.06172839506172839,48.148148148148145,0)" xlink:href="#au"/><use transform="matrix(0.06172839506172839,0,0,0.06172839506172839,54.32098765432099,0)" xlink:href="#at"/><use transform="matrix(0.06172839506172839,0,0,0.06172839506172839,66.66666666666667,0)" xlink:href="#aB"/></g><path fill="#1d262b" d="M155-56V0h-30v-56H8v-25l114-167h33v167h35v25h-35zm-30-156c-27 46-58 90-88 131h88v-131" id="aC"/><g id="p"><use transform="matrix(0.06172839506172839,0,0,0.06172839506172839,0,0)" xlink:href="#aC"/><use transform="matrix(0.06172839506172839,0,0,0.06172839506172839,12.345679012345679,0)" xlink:href="#al"/></g><g id="q"><use transform="matrix(0.06172839506172839,0,0,0.06172839506172839,0,0)" xlink:href="#ax"/><use transform="matrix(0.06172839506172839,0,0,0.06172839506172839,11.11111111111111,0)" xlink:href="#ay"/><use transform="matrix(0.06172839506172839,0,0,0.06172839506172839,23.45679012345679,0)" xlink:href="#ag"/><use transform="matrix(0.06172839506172839,0,0,0.06172839506172839,35.80246913580247,0)" xlink:href="#aj"/><use transform="matrix(0.06172839506172839,0,0,0.06172839506172839,48.148148148148145,0)" xlink:href="#au"/><use transform="matrix(0.06172839506172839,0,0,0.06172839506172839,54.32098765432099,0)" xlink:href="#at"/><use transform="matrix(0.06172839506172839,0,0,0.06172839506172839,66.66666666666667,0)" xlink:href="#aC"/></g><path fill="#1d262b" d="M135-143c-3-34-86-38-87 0 15 53 115 12 119 90S17 21 10-45l28-5c4 36 97 45 98 0-10-56-113-15-118-90-4-57 82-63 122-42 12 7 21 19 24 35" id="aD"/><g id="r"><use transform="matrix(0.06172839506172839,0,0,0.06172839506172839,0,0)" xlink:href="#ax"/><use transform="matrix(0.06172839506172839,0,0,0.06172839506172839,11.11111111111111,0)" xlink:href="#ay"/><use transform="matrix(0.06172839506172839,0,0,0.06172839506172839,23.45679012345679,0)" xlink:href="#aD"/><use transform="matrix(0.06172839506172839,0,0,0.06172839506172839,34.5679012345679,0)" xlink:href="#aw"/><use transform="matrix(0.06172839506172839,0,0,0.06172839506172839,46.913580246913575,0)" xlink:href="#an"/><use transform="matrix(0.06172839506172839,0,0,0.06172839506172839,65.37037037037037,0)" xlink:href="#at"/></g><path fill="#1d262b" d="M18-150v-26h174v26H18zm0 90v-26h174v26H18" id="aE"/><use transform="matrix(0.06172839506172839,0,0,0.06172839506172839,0,0)" xlink:href="#aE" id="s"/><g id="t"><use transform="matrix(0.06172839506172839,0,0,0.06172839506172839,0,0)" xlink:href="#ax"/><use transform="matrix(0.06172839506172839,0,0,0.06172839506172839,11.11111111111111,0)" xlink:href="#ay"/><use transform="matrix(0.06172839506172839,0,0,0.06172839506172839,23.45679012345679,0)" xlink:href="#ag"/><use transform="matrix(0.06172839506172839,0,0,0.06172839506172839,35.80246913580247,0)" xlink:href="#aj"/><use transform="matrix(0.06172839506172839,0,0,0.06172839506172839,48.148148148148145,0)" xlink:href="#au"/><use transform="matrix(0.06172839506172839,0,0,0.06172839506172839,54.32098765432099,0)" xlink:href="#at"/><use transform="matrix(0.06172839506172839,0,0,0.06172839506172839,66.66666666666667,0)" xlink:href="#az"/></g><path fill="#1d262b" d="M118-107v75H92v-75H18v-26h74v-75h26v75h74v26h-74" id="aF"/><use transform="matrix(0.06172839506172839,0,0,0.06172839506172839,0,0)" xlink:href="#aF" id="u"/><g id="v"><use transform="matrix(0.06172839506172839,0,0,0.06172839506172839,0,0)" xlink:href="#ax"/><use transform="matrix(0.06172839506172839,0,0,0.06172839506172839,11.11111111111111,0)" xlink:href="#ay"/><use transform="matrix(0.06172839506172839,0,0,0.06172839506172839,23.45679012345679,0)" xlink:href="#ag"/><use transform="matrix(0.06172839506172839,0,0,0.06172839506172839,35.80246913580247,0)" xlink:href="#aj"/><use transform="matrix(0.06172839506172839,0,0,0.06172839506172839,48.148148148148145,0)" xlink:href="#au"/><use transform="matrix(0.06172839506172839,0,0,0.06172839506172839,54.32098765432099,0)" xlink:href="#at"/><use transform="matrix(0.06172839506172839,0,0,0.06172839506172839,66.66666666666667,0)" xlink:href="#aA"/></g><use transform="matrix(0.06172839506172839,0,0,0.06172839506172839,0,0)" xlink:href="#aF" id="w"/><g id="x"><use transform="matrix(0.06172839506172839,0,0,0.06172839506172839,0,0)" xlink:href="#ax"/><use transform="matrix(0.06172839506172839,0,0,0.06172839506172839,11.11111111111111,0)" xlink:href="#ay"/><use transform="matrix(0.06172839506172839,0,0,0.06172839506172839,23.45679012345679,0)" xlink:href="#ag"/><use transform="matrix(0.06172839506172839,0,0,0.06172839506172839,35.80246913580247,0)" xlink:href="#aj"/><use transform="matrix(0.06172839506172839,0,0,0.06172839506172839,48.148148148148145,0)" xlink:href="#au"/><use transform="matrix(0.06172839506172839,0,0,0.06172839506172839,54.32098765432099,0)" xlink:href="#at"/><use transform="matrix(0.06172839506172839,0,0,0.06172839506172839,66.66666666666667,0)" xlink:href="#aB"/></g><g id="y"><use transform="matrix(0.06172839506172839,0,0,0.06172839506172839,0,0)" xlink:href="#ax"/><use transform="matrix(0.06172839506172839,0,0,0.06172839506172839,11.11111111111111,0)" xlink:href="#ay"/><use transform="matrix(0.06172839506172839,0,0,0.06172839506172839,23.45679012345679,0)" xlink:href="#av"/><use transform="matrix(0.06172839506172839,0,0,0.06172839506172839,35.80246913580247,0)" xlink:href="#ap"/><use transform="matrix(0.06172839506172839,0,0,0.06172839506172839,43.148148148148145,0)" xlink:href="#aj"/><use transform="matrix(0.06172839506172839,0,0,0.06172839506172839,55.49382716049382,0)" xlink:href="#an"/><use transform="matrix(0.06172839506172839,0,0,0.06172839506172839,73.9506172839506,0)" xlink:href="#aq"/><use transform="matrix(0.06172839506172839,0,0,0.06172839506172839,86.29629629629629,0)" xlink:href="#ar"/><use transform="matrix(0.06172839506172839,0,0,0.06172839506172839,98.64197530864197,0)" xlink:href="#ah"/><use transform="matrix(0.06172839506172839,0,0,0.06172839506172839,103.51851851851852,0)" xlink:href="#aj"/></g><g id="z"><use transform="matrix(0.06172839506172839,0,0,0.06172839506172839,0,0)" xlink:href="#ax"/><use transform="matrix(0.06172839506172839,0,0,0.06172839506172839,11.11111111111111,0)" xlink:href="#ay"/><use transform="matrix(0.06172839506172839,0,0,0.06172839506172839,23.45679012345679,0)" xlink:href="#aD"/><use transform="matrix(0.06172839506172839,0,0,0.06172839506172839,34.5679012345679,0)" xlink:href="#aw"/><use transform="matrix(0.06172839506172839,0,0,0.06172839506172839,46.913580246913575,0)" xlink:href="#an"/><use transform="matrix(0.06172839506172839,0,0,0.06172839506172839,65.37037037037037,0)" xlink:href="#at"/></g><path fill="#1d262b" d="M0 4l72-265h28L28 4H0" id="aG"/><use transform="matrix(0.06172839506172839,0,0,0.06172839506172839,0,0)" xlink:href="#aG" id="A"/><use transform="matrix(0.06172839506172839,0,0,0.06172839506172839,0,0)" xlink:href="#aC" id="B"/><g id="C"><use transform="matrix(0.05,0,0,0.05,0,0)" xlink:href="#ax"/><use transform="matrix(0.05,0,0,0.05,9,0)" xlink:href="#ay"/><use transform="matrix(0.05,0,0,0.05,19,0)" xlink:href="#av"/><use transform="matrix(0.05,0,0,0.05,29,0)" xlink:href="#ap"/><use transform="matrix(0.05,0,0,0.05,34.95,0)" xlink:href="#aj"/><use transform="matrix(0.05,0,0,0.05,44.95,0)" xlink:href="#an"/><use transform="matrix(0.05,0,0,0.05,59.900000000000006,0)" xlink:href="#aq"/><use transform="matrix(0.05,0,0,0.05,69.9,0)" xlink:href="#ar"/><use transform="matrix(0.05,0,0,0.05,79.9,0)" xlink:href="#ah"/><use transform="matrix(0.05,0,0,0.05,83.85000000000001,0)" xlink:href="#aj"/></g><path fill="#1d262b" d="M18-27v-27l151-64-151-65v-27l175 74v36" id="aH"/><g id="D"><use transform="matrix(0.05,0,0,0.05,0,0)" xlink:href="#aH"/><use transform="matrix(0.05,0,0,0.05,10.5,0)" xlink:href="#aE"/></g><path fill="#1d262b" d="M101-251c68 0 85 55 85 127S166 4 100 4C33 4 14-52 14-124c0-73 17-127 87-127zm-1 229c47 0 54-49 54-102s-4-102-53-102c-51 0-55 48-55 102 0 53 5 102 54 102" id="aI"/><use transform="matrix(0.05,0,0,0.05,0,0)" xlink:href="#aI" id="E"/><path fill="#1d262b" d="M179-190L93 31C79 59 56 82 12 73V49c39 6 53-20 64-50L1-190h34L92-34l54-156h33" id="aJ"/><use transform="matrix(0.05,0,0,0.05,0,0)" xlink:href="#aJ" id="F"/><g id="G"><use transform="matrix(0.05,0,0,0.05,0,0)" xlink:href="#ax"/><use transform="matrix(0.05,0,0,0.05,9,0)" xlink:href="#ay"/><use transform="matrix(0.05,0,0,0.05,19,0)" xlink:href="#av"/><use transform="matrix(0.05,0,0,0.05,29,0)" xlink:href="#ap"/><use transform="matrix(0.05,0,0,0.05,34.95,0)" xlink:href="#aj"/><use transform="matrix(0.05,0,0,0.05,44.95,0)" xlink:href="#an"/><use transform="matrix(0.05,0,0,0.05,59.900000000000006,0)" xlink:href="#aq"/><use transform="matrix(0.05,0,0,0.05,69.9,0)" xlink:href="#ar"/><use transform="matrix(0.05,0,0,0.05,79.9,0)" xlink:href="#ah"/><use transform="matrix(0.05,0,0,0.05,83.85000000000001,0)" xlink:href="#aj"/></g><path fill="#1d262b" d="M18-100v-36l175-74v27L42-118l151 64v27" id="aK"/><use transform="matrix(0.05,0,0,0.05,0,0)" xlink:href="#aK" id="H"/><path fill="#1d262b" d="M110-160c48 1 74 30 74 79 0 53-28 85-80 85-65 0-83-55-86-122-5-90 50-162 133-122 14 7 22 21 27 39l-31 6c-5-40-67-38-82-6-9 19-15 44-15 74 11-20 30-34 60-33zm-7 138c34 0 49-23 49-58s-16-56-50-56c-29 0-50 16-49 49 1 36 15 65 50 65" id="aL"/><g id="I"><use transform="matrix(0.05,0,0,0.05,0,0)" xlink:href="#aL"/><use transform="matrix(0.05,0,0,0.05,10,0)" xlink:href="#aI"/></g><path fill="#1d262b" d="M232-93c-1 65-40 97-104 97C67 4 28-28 28-90v-158h33c8 89-33 224 67 224 102 0 64-133 71-224h33v155" id="aM"/><g id="J"><use transform="matrix(0.06172839506172839,0,0,0.06172839506172839,0,0)" xlink:href="#al"/><use transform="matrix(0.06172839506172839,0,0,0.06172839506172839,7.8395061728395055,0)" xlink:href="#aM"/><use transform="matrix(0.06172839506172839,0,0,0.06172839506172839,23.827160493827158,0)" xlink:href="#aD"/><use transform="matrix(0.06172839506172839,0,0,0.06172839506172839,34.938271604938265,0)" xlink:href="#au"/><use transform="matrix(0.06172839506172839,0,0,0.06172839506172839,41.11111111111111,0)" xlink:href="#aq"/><use transform="matrix(0.06172839506172839,0,0,0.06172839506172839,53.456790123456784,0)" xlink:href="#ar"/></g><path fill="#1d262b" d="M30-248c87 1 191-15 191 75 0 78-77 80-158 76V0H30v-248zm33 125c57 0 124 11 124-50 0-59-68-47-124-48v98" id="aN"/><g id="K"><use transform="matrix(0.06172839506172839,0,0,0.06172839506172839,0,0)" xlink:href="#aN"/><use transform="matrix(0.06172839506172839,0,0,0.06172839506172839,14.814814814814813,0)" xlink:href="#aq"/><use transform="matrix(0.06172839506172839,0,0,0.06172839506172839,27.160493827160494,0)" xlink:href="#ap"/><use transform="matrix(0.06172839506172839,0,0,0.06172839506172839,34.50617283950617,0)" xlink:href="#ar"/><use transform="matrix(0.06172839506172839,0,0,0.06172839506172839,46.85185185185185,0)" xlink:href="#ah"/><use transform="matrix(0.06172839506172839,0,0,0.06172839506172839,51.72839506172839,0)" xlink:href="#aj"/><use transform="matrix(0.06172839506172839,0,0,0.06172839506172839,64.07407407407408,0)" xlink:href="#al"/></g><path fill="#1d262b" d="M185-189c-5-48-123-54-124 2 14 75 158 14 163 119 3 78-121 87-175 55-17-10-28-26-33-46l33-7c5 56 141 63 141-1 0-78-155-14-162-118-5-82 145-84 179-34 5 7 8 16 11 25" id="aO"/><path fill="#1d262b" d="M34 0v-190h32V0H34zM24-211c8-23 27-35 38-54h36v5l-58 49H24" id="aP"/><g id="L"><use transform="matrix(0.05,0,0,0.05,0,0)" xlink:href="#aO"/><use transform="matrix(0.05,0,0,0.05,12,0)" xlink:href="#aP"/></g><g id="M"><use transform="matrix(0.06172839506172839,0,0,0.06172839506172839,0,0)" xlink:href="#aj"/><use transform="matrix(0.06172839506172839,0,0,0.06172839506172839,12.345679012345679,0)" xlink:href="#aw"/><use transform="matrix(0.06172839506172839,0,0,0.06172839506172839,24.691358024691358,0)" xlink:href="#au"/><use transform="matrix(0.06172839506172839,0,0,0.06172839506172839,30.864197530864196,0)" xlink:href="#av"/><use transform="matrix(0.06172839506172839,0,0,0.06172839506172839,43.20987654320987,0)" xlink:href="#aw"/><use transform="matrix(0.06172839506172839,0,0,0.06172839506172839,55.55555555555555,0)" xlink:href="#au"/></g><g id="N"><use transform="matrix(0.05,0,0,0.05,0,0)" xlink:href="#aL"/><use transform="matrix(0.05,0,0,0.05,10,0)" xlink:href="#aI"/></g><g id="O"><use transform="matrix(0.05,0,0,0.05,0,0)" xlink:href="#aK"/><use transform="matrix(0.05,0,0,0.05,10.5,0)" xlink:href="#aE"/></g><path fill="#1d262b" d="M64 0c3-98 48-159 88-221H18v-27h164v26C143-157 98-101 97 0H64" id="aQ"/><g id="P"><use transform="matrix(0.05,0,0,0.05,0,0)" xlink:href="#aQ"/><use transform="matrix(0.05,0,0,0.05,10,0)" xlink:href="#aI"/></g><path fill="#1d262b" d="M177-190C167-65 218 103 67 71c-23-6-38-20-44-43l32-5c15 47 100 32 89-28v-30C133-14 115 1 83 1 29 1 15-40 15-95c0-56 16-97 71-98 29-1 48 16 59 35 1-10 0-23 2-32h30zM94-22c36 0 50-32 50-73 0-42-14-75-50-75-39 0-46 34-46 75s6 73 46 73" id="aR"/><g id="Q"><use transform="matrix(0.06172839506172839,0,0,0.06172839506172839,0,0)" xlink:href="#aR"/><use transform="matrix(0.06172839506172839,0,0,0.06172839506172839,12.345679012345679,0)" xlink:href="#at"/><use transform="matrix(0.06172839506172839,0,0,0.06172839506172839,24.691358024691358,0)" xlink:href="#ag"/><use transform="matrix(0.06172839506172839,0,0,0.06172839506172839,37.03703703703704,0)" xlink:href="#aj"/></g><g id="R"><use transform="matrix(0.06172839506172839,0,0,0.06172839506172839,0,0)" xlink:href="#ap"/><use transform="matrix(0.06172839506172839,0,0,0.06172839506172839,7.345679012345679,0)" xlink:href="#at"/><use transform="matrix(0.06172839506172839,0,0,0.06172839506172839,19.691358024691358,0)" xlink:href="#aD"/><use transform="matrix(0.06172839506172839,0,0,0.06172839506172839,30.80246913580247,0)" xlink:href="#av"/><use transform="matrix(0.06172839506172839,0,0,0.06172839506172839,43.148148148148145,0)" xlink:href="#at"/><use transform="matrix(0.06172839506172839,0,0,0.06172839506172839,55.49382716049382,0)" xlink:href="#ar"/><use transform="matrix(0.06172839506172839,0,0,0.06172839506172839,67.8395061728395,0)" xlink:href="#ah"/><use transform="matrix(0.06172839506172839,0,0,0.06172839506172839,72.71604938271605,0)" xlink:href="#au"/><use transform="matrix(0.06172839506172839,0,0,0.06172839506172839,78.88888888888889,0)" xlink:href="#aj"/><use transform="matrix(0.06172839506172839,0,0,0.06172839506172839,91.23456790123457,0)" xlink:href="#al"/></g><g id="S"><use transform="matrix(0.05,0,0,0.05,0,0)" xlink:href="#am"/><use transform="matrix(0.05,0,0,0.05,12.950000000000001,0)" xlink:href="#aj"/></g><use transform="matrix(0.05,0,0,0.05,0,0)" xlink:href="#aH" id="T"/><g id="U"><use transform="matrix(0.05,0,0,0.05,0,0)" xlink:href="#aQ"/><use transform="matrix(0.05,0,0,0.05,10,0)" xlink:href="#aI"/></g><path fill="#1d262b" d="M134-131c28 9 52 24 51 62-1 50-34 73-85 73S17-19 16-69c0-36 21-54 49-61-75-25-45-126 34-121 46 3 78 18 79 63 0 33-17 51-44 57zm-34-11c31 1 46-15 46-44 0-28-17-43-47-42-29 0-46 13-45 42 1 28 16 44 46 44zm1 122c35 0 51-18 51-52 0-30-18-46-53-46-33 0-51 17-51 47 0 34 19 51 53 51" id="aS"/><g id="V"><use transform="matrix(0.05,0,0,0.05,0,0)" xlink:href="#aS"/><use transform="matrix(0.05,0,0,0.05,10,0)" xlink:href="#az"/></g><g id="W"><use transform="matrix(0.06172839506172839,0,0,0.06172839506172839,0,0)" xlink:href="#al"/><use transform="matrix(0.06172839506172839,0,0,0.06172839506172839,7.8395061728395055,0)" xlink:href="#aO"/><use transform="matrix(0.06172839506172839,0,0,0.06172839506172839,22.65432098765432,0)" xlink:href="#aw"/></g><g id="X"><use transform="matrix(0.06172839506172839,0,0,0.06172839506172839,0,0)" xlink:href="#ag"/><use transform="matrix(0.06172839506172839,0,0,0.06172839506172839,12.345679012345679,0)" xlink:href="#aj"/><use transform="matrix(0.06172839506172839,0,0,0.06172839506172839,24.691358024691358,0)" xlink:href="#au"/><use transform="matrix(0.06172839506172839,0,0,0.06172839506172839,30.864197530864196,0)" xlink:href="#at"/></g><g id="Y"><use transform="matrix(0.06172839506172839,0,0,0.06172839506172839,0,0)" xlink:href="#aq"/><use transform="matrix(0.06172839506172839,0,0,0.06172839506172839,12.345679012345679,0)" xlink:href="#aD"/></g><g id="Z"><use transform="matrix(0.06172839506172839,0,0,0.06172839506172839,0,0)" xlink:href="#ao"/><use transform="matrix(0.06172839506172839,0,0,0.06172839506172839,12.345679012345679,0)" xlink:href="#aw"/><use transform="matrix(0.06172839506172839,0,0,0.06172839506172839,24.691358024691358,0)" xlink:href="#aq"/><use transform="matrix(0.06172839506172839,0,0,0.06172839506172839,37.03703703703704,0)" xlink:href="#ag"/><use transform="matrix(0.06172839506172839,0,0,0.06172839506172839,49.382716049382715,0)" xlink:href="#at"/></g><g id="aa"><use transform="matrix(0.06172839506172839,0,0,0.06172839506172839,0,0)" xlink:href="#aq"/><use transform="matrix(0.06172839506172839,0,0,0.06172839506172839,12.345679012345679,0)" xlink:href="#ag"/><use transform="matrix(0.06172839506172839,0,0,0.06172839506172839,24.691358024691358,0)" xlink:href="#al"/></g><g id="ab"><use transform="matrix(0.05,0,0,0.05,0,0)" xlink:href="#aS"/><use transform="matrix(0.05,0,0,0.05,10,0)" xlink:href="#az"/></g><g id="ac"><use transform="matrix(0.05,0,0,0.05,0,0)" xlink:href="#az"/><use transform="matrix(0.05,0,0,0.05,10,0)" xlink:href="#aI"/><use transform="matrix(0.05,0,0,0.05,20,0)" xlink:href="#aI"/></g><path fill="#1d262b" d="M240 0l2-218c-23 76-54 145-80 218h-23L58-218 59 0H30v-248h44l77 211c21-75 51-140 76-211h43V0h-30" id="aT"/><g id="ad"><use transform="matrix(0.06172839506172839,0,0,0.06172839506172839,0,0)" xlink:href="#al"/><use transform="matrix(0.06172839506172839,0,0,0.06172839506172839,7.8395061728395055,0)" xlink:href="#aT"/><use transform="matrix(0.06172839506172839,0,0,0.06172839506172839,26.296296296296294,0)" xlink:href="#aw"/><use transform="matrix(0.06172839506172839,0,0,0.06172839506172839,38.641975308641975,0)" xlink:href="#aJ"/></g><g id="ae"><use transform="matrix(0.06172839506172839,0,0,0.06172839506172839,0,0)" xlink:href="#ax"/><use transform="matrix(0.06172839506172839,0,0,0.06172839506172839,11.11111111111111,0)" xlink:href="#ay"/><use transform="matrix(0.06172839506172839,0,0,0.06172839506172839,23.45679012345679,0)" xlink:href="#av"/><use transform="matrix(0.06172839506172839,0,0,0.06172839506172839,35.80246913580247,0)" xlink:href="#ap"/><use transform="matrix(0.06172839506172839,0,0,0.06172839506172839,43.148148148148145,0)" xlink:href="#aj"/><use transform="matrix(0.06172839506172839,0,0,0.06172839506172839,55.49382716049382,0)" xlink:href="#an"/><use transform="matrix(0.06172839506172839,0,0,0.06172839506172839,73.9506172839506,0)" xlink:href="#aq"/><use transform="matrix(0.06172839506172839,0,0,0.06172839506172839,86.29629629629629,0)" xlink:href="#ar"/><use transform="matrix(0.06172839506172839,0,0,0.06172839506172839,98.64197530864197,0)" xlink:href="#ah"/><use transform="matrix(0.06172839506172839,0,0,0.06172839506172839,103.51851851851852,0)" xlink:href="#aj"/></g></defs></g></svg>